<?xml version="1.0" encoding="utf-8"?>
<!-- Generator: Adobe Illustrator 25.2.3, SVG Export Plug-In . SVG Version: 6.00 Build 0)  -->
<svg version="1.1" id="Layer_1" xmlns="http://www.w3.org/2000/svg" xmlns:xlink="http://www.w3.org/1999/xlink" x="0px" y="0px"
	 width="1366px" height="1420.2px" viewBox="0 0 1366 1420.2" style="enable-background:new 0 0 1366 1420.2;" xml:space="preserve"
	>
<style type="text/css">
	.st0{fill:#F5161A;}
	.st1{fill:#FCFCFC;}
	.st2{fill:#332D31;}
	.st3{fill:#F78082;}
	.st4{fill:#768714;}
	.st5{fill:none;stroke:#332D31;stroke-width:2;stroke-miterlimit:10;}
</style>
<g id="circle">
	<path class="st0" d="M1244.5,786c0,61.7-10,121.1-28.5,176.7c-6.5,19.6-14.1,38.8-22.7,57.4c-20.6,44.7-46.9,86.2-78,123.6
		c-60.6,72.8-139.3,130-229.2,164.7c-26.3,10.1-53.5,18.3-81.4,24.4c-38.6,8.4-78.7,12.9-119.8,12.9c-52.2,0-102.7-7.1-150.6-20.5
		c-40.4-11.3-78.9-26.9-115-46.5c-51.3-27.7-97.8-63.2-137.9-104.9c-27.7-28.9-52.4-60.7-73.5-95c-32.9-53.5-57-112.9-70.4-176.2
		c-7.9-37.6-12.1-76.5-12.1-116.4c0-34.1,3.1-67.5,8.9-99.9c9.4-51.9,25.9-101.4,48.5-147.2c11.3-22.9,24.1-44.9,38.3-65.9
		s29.8-41,46.7-59.8c25.6-28.6,54.1-54.6,85.1-77.5c92.9-68.6,207.8-109.2,332.1-109.2c79.5,0,155.1,16.6,223.6,46.5
		c26.4,11.5,51.7,25,75.8,40.3c37.5,23.8,70.3,61.3,99.8,99.9c16.6,21.7,32.2,43.6,47,63.7c40.5,54.8,72.7,109.4,92.3,170.4
		C1236.9,689.6,1244.5,735.1,1244.5,786z"/>
</g>
<g id="cat">
	<g>
		<g>
			<path class="st1" d="M379.4,1104.6c2.1,1.7,4.2,3.8,7.2,4.1c2.3,2.2,3.4,5.2,5.2,7.8c17.7,26.6,37.3,51.7,57.7,76.2
				c0.6,0.8,1.7,1.3,1.2,2.4s-1.7,0.6-2.7,0.8c-9.3,1.1-18.6,1.8-27.7,3.3c-9.2,1.5-18.2,3.7-26.3,8.7c-3.5,2.2-5.4,5-3.4,9.5
				c1.6,3.7,4.1,6.2,7.2,8.5c5.2,3.6,11.2,5.2,17.2,5.9c20.7,2.3,41.4,4,62.1,5.9c1.2,0.1,2.9,0.9,4-0.9c-2.2-1.8-4.7-1.6-7.2-1.8
				c-3.8-0.3-7.6-0.5-11.4-0.7c-3.6-0.2-4.9-1.9-4.1-5.5c1.8-8.6,0-16.9-2.7-24.9c-1.9-5.6-2.2-5.6,3.7-5.3
				c20.6,1.1,41.3,0.6,61.9,0.1c4.1-0.1,5.9,1.6,7.5,4.8c6.6,12.5,4.9,25.4,1.8,38.4c-0.6,2.3-1.6,3.1-4.2,2.6
				c-8.8-1.5-17.6-3.2-26.2-5.6c-2.6-0.7-5.1-0.9-8.2,0.3c14.5,3.8,28.4,6.5,42.4,9c13.3,2.4,26.5,4.5,40,5.2
				c13.1,0.7,26,3.8,39,5.3c34.6,4,69.4,4.7,104.2,6.1c29.3,1.2,58.6-0.8,87.9-0.3c17.5,0.3,34.9-1.5,52.3-2.7c15.1-1,30.1-2,45.1-4
				c10-1.3,20-3,30-4.8c21.5-3.8,43-7.1,63.9-13.2c12.2-3.6,24.4-8,35.5-14.9c9.3-5.8,17.9-11.9,21-23.2c2-7.2,3.4-14.5,4.7-21.8
				c3-16.7,5.6-33.4,9-50c2.5-12.5,3.3-24.7-1.2-36.7c-2.3-6-4.7-12-7.1-18"/>
			<path class="st1" d="M263.9,1298.9c-3.4,0-4.1-0.7-4.1-4.1"/>
			<path class="st1" d="M1108.9,1016.4c1.1-1.8,2.3-3.6,3-5.6"/>
			<path class="st2" d="M458.9,516.5c3-8.8,9.7-15.3,14.5-22.9c2.5-3.9,5.3-7.6,8.5-10.9c3.4-3.5,3.5-7,1.8-11.2
				c-12.3-30.4-18.4-61.9-16.3-94.8c1.6-25.3,6-50,17-73.1c0.7-1.5,1.1-3.3,3.3-3.1c-3.2,9.8-8.3,19-10.4,30.1
				c4.6-1.9,8.3-3.3,11.9-4.9c8.9-3.9,18.5-4.9,27.8-6.9c0.6-0.1,1.6-0.2,1.6,0.6c0.6,6.1,6.5,8.4,9.2,13c11.8-2.6,6.6,7,5.2,5.9
				c-3.3-2.5-21.6-5.4-21.2-4.5c0.8,1.9,0.3,2.9-1.9,2.7c-9.8-0.8-19.7-0.7-29.3-2.6c-5.3-1-5.5,1-6,4.5c-1.3,9.2-3.1,18.4-3.9,27.7
				c-1.3,13.9-2.7,27.9-0.6,41.8c0.3,1.8,0,4.3,2.1,4.6c3.6,0.6,6.2,3.1,9.4,4.3c4.1,1.7,8,1.2,11.1-1.9
				c9.4-9.5,13.9-21.3,13.4-34.5c-0.1-4.7,2.9-6.3,5.4-7.8c2.1-1.2,4.8,1,6.2,3.5c1,1.8,1.4,3.7,1.9,5.6c2.3,8.9,5.9,17.1,12,24
				c3.3,3.7,8.2,3.9,12.4,5.8c15,6.9,29.6,5.8,44.5-1.2c12.2-5.8,22.7-14,33.3-22.1c5.7-4.3,11.7-8.2,18.7-10.6
				c-12.1,22.9-28.3,41.9-51.5,54.8c5.4-1.6,10.9-0.5,16.3-2c5.5-1.6,11.4-2.6,18.4-2c-3.1,2.6-5.7,2.1-8.1,2.2
				c-11.5,0.5-22.6,2.9-33.5,6.7c-2.2,0.8-4.6,1.5-4,4.7c1.3,7.1,3,14,7.8,19.8c1.8,2.1,3.3,2.6,5.9,0.7c4.7-3.4,9.8-6,15.3-8
				c5.2-1.9,9.8-5,15.6-5.3c1.4-0.1,2.8-4.8,4.4-0.9c1.1,2.7-2.9,2.1-4.5,2.7c-10.1,3.3-19.8,7-28.8,12.8c-3.4,2.2-2.5,3.8,0,5.5
				c4.1,2.8,8.5,4.9,13.2,6.7c11.5,4.5,23.4,4.1,35.4,3.1c20.9-1.7,31.9-19.3,36-34.4c0.4-1.5,0.4-3-0.9-4.6
				c-5.2-6.7-10.4-13.5-15-20.7c-1.8-2.9-3.7-4.9-6.9-5.7c-3.4-0.8-4.7-3.2-4.9-6.4c-1.1-12.8-4.2-25.2-7.2-37.6
				c-0.8-3.1-1.9-2.9-3.9-1.4c-5.6,4.1-11.7,7.3-17.9,10.4c-9.9,4.9-20,5.7-30.4,2.3c-19.8-6.4-34.2-19.1-43.5-37.5
				c-1.5-3-3.5-3.7-6.3-4.5c-3.9-1.1-8.2,0.7-11.6-2.2c3.1-0.9,4.3-2,1.4-4.8c-3-2.9-5.6-6.2-8.3-9.4c-0.8-0.9-2.5-1.9-1.3-3.3
				c1.1-1.4,3.1-0.7,4.7-0.9c1.4-0.1,12.6,2.8,13.5,1c1-2.1,3.6-1.8,4.3,0.5c1.1,3.5,3.7,2.5,5,1.5c3.8-3,7.6-1.6,11.4-0.8
				c7,1.5,13.7,4,21,4c11.6-0.1,22.6,2.6,33.5,6.5c4.3,1.5,8.1,4.5,13.3,4.4c-0.7-3.1-4.5-4.4-4.3-7.6L624,328c4.2,2,4.8,7,8.1,9.6
				c8.6,6.7,14.8,14.5,18.8,25.1c3.7,10,6.4,20.3,10,30.4c1.6,4.5,3.6,6,8.2,4.7c6.6-1.9,13.6-2.7,20.2-1c5.3,1.3,6.4-1.1,7.5-5
				c1.5-5.3,2.9-10.6,4.6-15.8c5-14.9,12.1-28.8,19.7-42.5c5.5-9.9,12.4-18.8,22.8-24c10.5-5.3,21.3-7.3,33.2-4.7
				c10.7,2.3,20.5,5.7,28.1,14.1c2.5,2.8,5.1,6.1,9.4,6.7c19.2,2.7,37.7,8.6,56.8,12.1c0.8,0.2,2.2,0,1.9,1.5
				c-0.1,0.9-0.8,1.4-1.7,1.5c-1,0.1-2,0.2-3,0.1c-18.5-0.5-36.9,1-55.3,3.2c-4.2,0.5-7.8,1.7-9.9,6.1c-4.9,10.6-13.7,18-22.4,25.2
				c-4.1,3.4-8.9,6-14.2,7.6c-11.5,3.5-22.7,0.4-33.9-2c-7.2-1.5-14.1-4.1-20.4-8.4c-3.3,10.8-4.3,21.2-3.8,31.7
				c0.2,5.1-1.8,9.1-5.3,11.2c-6.7,4-10.4,10.3-14.9,16c-2.3,2.9-6.8,5.8-6.1,9.7c1.8,9.2,4,18.4,10.5,25.8
				c18.8,21.1,45.7,26.7,71.1,14.9c2.8-1.3,2.6-2.8,1.2-4.5c-7.4-9-15.2-17.8-25.8-23.3c-1.7-0.9-3.2-1.7-2.4-4.1
				c2.2,2.4,5.6,2.3,8.1,4.4c6.5,5.3,12.9,10.6,18.1,17.3c6.2,7.8,8.2,7.6,14.4-0.3c1.5-1.9,1.5-3.3,0.1-5.2
				c-10.9-13.8-24.3-23.9-41.5-28.3c-1-0.3-2.2-0.4-1.9-1.7c0.4-1.5,1.6-0.2,2.4-0.4c3.8-0.8,7.3,3.6,11.3,0.6
				c0.4-0.3,1.3,0.4,1.1,1.2c-0.6,3.3,2.5,3.6,4.2,4.5c9.8,5.3,18,12.3,24.8,21c2.3,2.9,4.2,2.9,5.8-0.6c4.3-9.4,3.5-16.8-9.7-22.6
				c-9.2-4.1-18.3-8.2-27.4-12.2c-1.4-0.6-3.4-1.2-2.8-2.7c0.8-1.9,2.6-0.1,3.9,0.1c3,0.5,5.3,3.4,8.8,2.8c-0.3-1.6-1.5-2.2-2.5-3
				c-11.1-8.9-18.3-21.1-27.6-31.6c-1.4-1.6-3.7-4.1-1.5-6.5c2.3-2.5,4.6-0.2,6.7,0.9c13.2,6.6,24.9,15.6,36.5,24.4
				c19,14.5,38.2,15.5,58.6,4c8.1-4.6,14.2-11.1,18.4-19.4c1.1-2.1,2.8-5,5.4-4c2.7,1,4.4,3.9,4.9,7c0.2,1.1,0.1,2.3,0.1,3.5
				c0,2.7-0.1,5.3,0.1,8c0.6,6.4,6.2,14.2,11.2,14.9c6.1,0.8,12.3,1.5,18.1-1.5c1.2-0.6,2-1.1,3-0.1c1.1,1.1,0.9,2.5,0.1,3.6
				c-2,2.8-3.9,5.6-7.4,7c-14.6,5.8-26.7,2.1-35.1-11.2c-1-1.6-1.6-4-3.5-0.9c-3.7,5.9-9.6,9.5-14.9,13.7c-4,3.1-9.1,4-13.9,5.5
				c-8.2,2.6-16.5,2.3-24.9,1.9c0.1,2.1,1.6,2.9,2.6,3.7c21.2,18.2,34.1,41.4,41.1,68.2c0.9,3.6,2.5,4.5,6,2.2
				c8.2-5.2,16.2-10.8,23.3-17.5c4.3-4,9.3-8,11.2-13.6c2.2-6.7,5.7-12.8,8.2-19.4c6.7-18,10-36.5,10.8-55.5
				c0.6-15.4,0.6-30.9-2.5-46.2c-2.8-13.7-5.9-27.2-11.3-40.1c-4.3-10.3-12.1-18.4-17.2-28.2c-2.6-5.1-4.2-11.2-8-15.2
				c-4.4-4.5-2.2-8-0.9-12.1c5.3-16.6,5.7-33.2-0.2-49.7c-1.3-3.7-1.6-7.3-1.1-11.2c1.1-8.8,1.1-18.1-1.2-26.3
				c-7.3-26-15.6-51.7-28.9-75.5c-2.2-3.9-4.1-4.5-7.8-3.2c-12.3,4.4-22.1,12.8-31.7,21.1c-7.2,6.3-11.7,14.9-17.1,22.9
				c-13,19.3-26.7,38.1-40.2,57.1c-0.6,0.9-1.4,2.2-2.8,1.2c-1.1-0.8-0.8-2.2-0.1-3.1c1.4-2,3-4,4.6-5.9c2-2.5,6-5.5,4.8-8
				c-1.5-3.1-6.2-1.6-9.6-1.3c-6.5,0.6-13,2.3-19.3,1.6c-12.6-1.5-25.2-2.3-37.8-2.9c-8.5-0.4-17,0.6-25.4,1.1
				c-4.3,0.3-5.6,2.1-4.1,6.3c0.9,2.4,2.3,4.6,2.3,7.4c0,1.2,2.1,2.8,0.1,3.6c-1.6,0.6-2.2-1.3-2.6-2.9c-3.4-13-10.2-24.5-16.6-36.3
				C605,144,586.7,127,567.8,110.6c-0.7-0.6-1.8-0.8-2.6-1.2c-1.9-3.7-5.3-6.1-8.3-8.8c-5.4-5-7.4-4.4-10.1,3c-1.3,0-2,0.7-2.8,1.7
				c-5.7,7-10.4,14.6-15,22.4c-0.5,0.8-2.1,1.9-0.6,2.9c1.4,0.9,1.8-0.8,2.4-1.7c5.5-8.3,11-16.6,16.5-24.9
				c4.3-1.9,7.8-0.4,11.6,1.8c2,1.2,2.9,4.2,5.9,3.9c1.4,3.1,4.6,4.6,6.7,7.1c11.7,13.4,22.1,27.8,33.7,41.3
				c13.7,16,17.1,36,22.6,55.2c0.7,2.4-0.3,4-3.2,2.1c-1.5-1-2.4-1-3.2,1.1c-1.3,3.2-3.6,2.7-6,0.8c-2.4-1.9-4.4-4.2-7.3-5.8
				c-4.1-2.2-3.9-0.3-3.9,2.6c0,1.6,0.9,3.7-1,4.5c-1.4,0.6-2.8-0.8-3.8-1.9c-2.2-2.3-3.2-1.4-3.8,1.2c-0.2,0.9-0.3,2-1.5,2.6
				c-3.4-4.1-5.2-2.6-5.6,2.3c-3.2-1.5-4.5-4.1-6.4-6.1c-1.8-1.9-4.4-3.2-6.5-2.8c-2.5,0.5-1.2,3.7-1.5,5.7
				c-0.2,1.3-0.2,2.6,0.7,3.8c1.5,1.9-0.4,3.2-1.2,4.3c-1.1,1.5-2.2-0.5-3.3-0.7c-2.4-0.3-2.8-3.4-5.1-3.7c-0.3-0.2-0.8-0.7-1-0.7
				c-0.6,0.4-0.6,1-0.2,1.6c-0.5,4.9-0.2,9.3,3,13.6c4.4,5.9,7.9,12.5,11.9,18.8c0.7,1.1,1.3,2.4,0.3,3.1c-1.4,1-1.8-0.6-2.3-1.6
				c-4.2-7.2-8.3-14.5-12.7-21.6c-1.5-2.5-3.1-5.2-5.8-6.7c-1.7-0.9-3.5-1.8-3.7,1.5c-0.2,3.1-1.4,2.3-3,0.7
				c-1.6-1.6-1.9-4.6-4.9-5.5c0,4.9,0,9.3,0,13.7c0,2.3-0.1,4.4-3.2,2.1c-2.7-2-3.7-1-3.8,2s-0.8,5.1-4.2,7
				c-4.2,2.4-7.4,6.8-11,10.4c-0.5-0.4-1.5-0.9-1.8-2.2c-1.5-5.8-3-11.5-2.9-17.6c0.1-9.1,1.7-18.6-0.6-27.3
				c-3.6-13.3-2.3-26.4-1.6-39.6c0.1-1.7,1.2-3.5-0.2-5.1c-1.4,0.3-1.6,1.3-1.7,2.3c-0.8,12.3-2.5,24.7-1.1,37
				c0.9,7.6,0.8,14.6-4.6,20.5c-3.5,3.8-3.5,8.5-3.2,12.8c0.9,10.2,3.8,19.7,12.2,26.7c0.5,0.4,0.8,1.5,0.7,2.2
				c-0.3,1.2-1.5,0.8-2,0.4c-2.5-2.4-3.4-0.3-4.9,1.3c-4.2,4.4-7.2,10.1-13.2,12.5c3-6,8.1-10.3,12.1-15.6c1.1-1.4,1.8-2.2,0.6-4.1
				c-4.2-7-7.9-14.2-7.8-22.7c0-1.5-0.2-3.5-2.8-2.7c1.3-1,3-1.6,3-3.8c-0.1-4.2,2.3-7.5,4.6-10.7c2.3-3.1,3.4-6.4,3-10.3
				c-2-22.6,0.2-44.9,4.6-67c0.7-3.6,2.5-7,4.1-10.4c4.8-10.2,9.6-20.4,16.6-29.4c4.1-5.2,8.2-10.3,12.3-15.5c2-2.5,3.5-0.8,4.9,0.4
				c6.2,4.9,11,11.2,17,16.4c11.2,9.7,22.6,19.3,31.8,31c7.8,9.9,14.1,20.9,20.2,32c2.1,3.9,4.5,7.6,6.4,11.5c1.1,2.3,3,2.1,4.6,1.6
				c8.7-2.5,17.7-1,26.4-1.2c14.1-0.3,28.6-1,42.5,3.6c1,0.3,2.4,0.2,3.4-0.2c6.9-3.1,14.3-2.8,21.6-2.4c3.4,0.2,5.5-0.4,7.7-3.7
				c7.1-10.7,14.5-21.2,22.4-31.5c4.5-5.9,7.7-12.8,12.3-18.5c11.4-14.2,25.4-24.9,42.6-31.1c4.3-1.6,6.6-0.1,8.9,4
				c8.5,15.3,13.6,31.9,20.3,47.8c7.4,17.6,11.6,35.6,10.6,54.6c-0.3,5.1-0.2,9.9,2.3,14.5c4.1,12.2,3,24.6,1.4,37
				c-0.4,2.8-1,5.7-1.9,8.2c-3.6,8.8,1.3,15.5,4.6,22.8c5,10.9,12.8,20.1,18.3,30.6c4.8,9.1,7.6,19,10.2,29
				c5.5,20.6,6.7,41.6,6,62.8c-0.4,13.1-2.2,26.2-6.1,38.7c-2.1,6.9-0.1,13.1,1.3,19.5c2.5,11.7,9.4,21.4,14.8,31.8
				c3.3,6.3,4.4,13.4,7.3,19.8c4.2,9.3,4.2,19.3,5.4,29.1c0.4,2.9,1.9,5.2,3.4,7.7c11,18.2,24.7,34.4,38,50.8
				c15.7,19.4,28.3,40.6,38,63.6c4.9,11.6,10.4,22.9,14,35c3.1,10.3,5.2,20.9,7,31.5c3.9,23,5.9,46.1,6.4,69.4
				c0.1,5.1,4.1,9.3,6.2,13.8c5.2,11.1,11.5,21.7,15.8,33.1c3.4,8.8,5.8,18.2,9.2,26.9c5.5,13.9,6.8,28.7,11.3,42.7
				c1.6,4.9,1.5,10.5,1.6,15.8c0.5,18.6,1.4,37.3-0.9,55.9c-1.7,13.7-5.6,26.9-9.2,40.2c-0.5,1.7-0.7,4.6-3.9,4.2
				c0.4-1.6,0.7-3.3,1.2-4.8c5.3-16.2,9-32.8,9.9-49.7c1.7-30.8,0.2-61.4-8.5-91.5c-6.5-22.7-14.9-44.5-26.5-65.1
				c-4.9-8.7-9.9-17.4-9.5-28.2c0.7-21.9-3.1-43.4-6.4-65c-4-26.4-14.4-50.6-25.1-74.7c-9.8-22-24.4-40.5-39-59.3
				c-8.3-10.6-17.9-20.3-24.4-32.2c-2-3.7-3.8-7.5-8.3-10.9c0,8.8,0,16.4,0,24c-0.1,26.5-5.2,52-17,75.9c-2.8,5.5-5.3,11-6,17.2
				c-0.5,4.8-1.4,9.5-2.2,14.3c-0.1,0.8,0.1,1.9-1,2.2c-0.1,0-0.5-0.4-0.6-0.7c-0.5-1.3,1.1-0.3,1.3-1.1s0.7-1.7-0.2-2.1
				c-3.1-1.6-1.5-4.2-0.9-6c0.6-2.1,0.9-4,0.4-7c-4.4,6-8.3,11.2-12.3,16.4c-0.9,1.1-2.2,2.8-3.4,2c-2-1.4,0.3-2.6,1-3.6
				c6.8-9.4,14.4-18.1,19.6-28.7c6.4-13.2,12.1-26.6,14.8-40.9c4-21,4.3-42.3,3.7-63.6c-0.6-20.3-5.4-39.4-14.3-57.4
				c-5.7-11.5-13.4-22.1-14.9-35.5c-2.2,0.9-2.5,2.7-2.8,4.2c-3.7,15.3-12.7,27-24.6,36.8c-10.7,8.8-22.2,16.3-34.9,22
				c-11.6,5.2-22.9,11.1-35.6,12.9c-5.5,0.8-8.4,3.4-10.5,8.2c-3.4,7.9-5.9,16.1-9.5,23.9c-8.1,17.9-13.5,36.8-23.1,54.1
				c-11.8,21.3-28.4,37.1-51.4,45.5c-6.1,2.2-12.9,2.9-19-2.7c-7-6.4-13-13.6-19.1-20.7c-13-15-23.9-31.5-34-48.5
				c-8.2-13.7-14.7-28.4-22.8-42.1c-3.4-5.7-7.2-11.4-9.4-17.6c-2.3-6.4-4.8-11.4-12.5-11.8c-3.6-0.2-7-1.5-10.5-2.6
				c-20.7-6.6-40.7-14.7-58.5-27.4c-6.5-4.6-13.7-8.6-16.6-16.9c-0.9-2.6-5-2.6-6.9-0.1c-5.3,6.9-10.7,13.8-15.7,21
				C465.6,508.1,464,513.6,458.9,516.5z M720.9,340.9c1.1,0,1.8-0.7,2.6-1.4c14.4-13.6,31.9-16.8,50.8-15.4
				c10.2,0.7,20.3-1.3,31.8-0.1c-12-15.3-27.5-19.1-43.9-17.6c-20.9,1.9-33.9,15.2-42,33.9c-0.4,0.4-1.1,0.9-0.4,1.4
				C720.7,342.3,720.7,341.3,720.9,340.9z M783.9,511.5c-1.3-0.4-2.4-0.5-3.1-2.4c-2.1-6.4-4.5-12.7-7.1-18.9
				c-2.7-6.6-5.5-7.1-9.6-1.3c-4.5,6.3-10,11.6-16.1,16c-10.1,7.3-19.9,15.2-32.8,17.3c-6.6,1.1-13.1,2.9-20.4,4.5
				c1.2,1.1,1.7,1.8,2.4,2.1c4.6,2,9.3,3.4,14,4.9c12.5,4.1,24.8,8.1,38.2,8.7c11.4,0.5,22.5-0.8,33.7-1.8c6.9-0.6,8.1-3,5.7-9.6
				c-1.3-3.5-2.1-7.2-3.9-10.6c-0.5-0.9-2.3-2.9-0.2-3.8c1.8-0.8,1.9,1.4,2.3,2.6c1.8,5.1,3.8,10.2,5.5,15.4c0.7,2.3,1.6,2.5,4,2
				c12-2.9,22.6-9,33.5-14.3c1.7-0.8,7-2.7,0.8-5.7c-1.1-0.5-1.4-2.9-1.9-4.4c-6.1-18.4-13.9-35.9-27.1-50.5
				c-3.7-4.1-7.4-8.5-13.1-11.9c1.5,6.9-0.5,11.9-3.7,16.5c-1.5,2.1-1.7,3.8-0.5,5.9c7.3,12.1,12.2,25.3,16.3,38.7
				c1.4,4.8,2,9.8,3.2,14.7c-1.4-2.6-3.3-4.8-4-7.8c-3.3-15.1-8.8-29.4-16.5-42.7c-0.7-1.2-1.5-3.4-3.2-2.1
				c-3.1,2.4-6.4,4.9-8.5,8.1c-1.8,2.7,0.9,7.1,2,8.3C779.8,495.8,780.8,504.2,783.9,511.5L783.9,511.5z M540.9,435.8
				c0.2,1.2,1.1,0.8,1.8,0.7c0.4-0.1,0.8-0.5,0.1-0.9C542.1,435.3,541.4,434.8,540.9,435.8c1.1-1,0.4-1.5-0.6-2
				c-3-1.4-5.8-3.1-8.5-5c-6.4-4.5-10.1-11.3-14.7-17.2c-2.6-3.3-4.2-2.6-5.8,0.4c-1.7,3.1-3.6,6.1-6.3,8.2c-9,7.3-16.5,10-26.1,3.9
				c-2.3-1.5-4.2-3.5-7-5.8c0.3,2.6,0.4,4.4,0.8,6.2c2.8,11.4,5.4,22.9,8.4,34.3c2.4,8.8,6.8,17,11.9,24.4
				c4.9,7.1,12.4,12.2,19.8,16.8c17,10.7,35.1,19,54.5,24.5c18.5,5.2,37,10.2,56.4,10.6c14.9,0.3,29.9,1.3,44.2-4.6
				c0.9-0.4,2.7,0.1,2.5-1.6c-0.1-1.5-1.5-1.4-2.7-1.7c-14.7-2.9-28.8-7.3-41-16.6c-6.4-4.9-13.5-9-18.5-15.6
				c-4.9-6.4-8.5-13.6-12.8-20.4c-3.5-5.3-7.8-6.7-11.3-3.3c-12.4,11.9-20.8,26.3-26.4,42.4c-0.4,1.1,0.4,3.2-1.6,2.9
				c-2.2-0.4-1.3-2.2-0.7-3.6c6.5-16.5,14.7-32,28.2-44c2.5-2.2,2.9-3.6,0.6-6c-1-1.1-1.5-2.7-2.6-3.6c-2.5-2.2-4.6-4.8-8.7-1.6
				c-13.5,10.5-25.2,22.4-33,37.9c-1.5,2.9-2.4,6.4-6.1,8.3c0.9-2.7,1.5-5,2.7-7.3c8.9-16.1,20.3-30,35.4-40.7
				c5.9-4.2,6.1-5.6,3.9-12.7c-0.8-2.4-1.9-2.4-3.6-1.6c-3.7,1.8-7.3,3.8-10.7,5.6c0.1-4.8,6.1-3.8,7.8-7.6
				c-7.6-0.8-15.3,1.7-22.3-2.3c-1.8-1-1.4,0.9-1.9,1.8c-2.1,4.1-4.4,8-8.9,10.2c-12,5.9-24.1,6.2-36.3,1.3
				c-7.2-2.9-14.3-6-17.4-13.8c4.9-2.7,9.4-1.1,13.6,1.6c4.8,3.1,10,4.3,15.7,3.5C521.6,440.5,531.4,438.8,540.9,435.8z
				 M588.2,532.3c1.3,6.2,4,10.7,6.7,15.1c14.6,24.1,25.4,50.4,41.8,73.5c11.1,15.6,23,30.4,36,44.3c6.3,6.7,13.6,8,21.5,4.9
				c15.4-6.1,28.8-15.4,38.5-29c9.4-13.1,16.8-27.1,22.1-42.5c5.9-17,13.2-33.6,20-50.2c1.4-3.4,1.4-4.8-2.9-4.3
				c-29.3,3.6-56.5-3.8-82.7-16.2c-1.8-0.8-3.3-0.9-5.2-0.5c-9.5,2.1-17.9,7.3-27.7,8.7c-16.4,2.4-32.7,2-49.1-0.1
				C601.1,535.3,595,534,588.2,532.3z M542.2,117.8c-1.4-0.3-1.5,0.8-2,1.4c-7,10.1-12.5,20.8-15.5,32.9
				c-4.3,17.4-7.2,35.2-4.4,52.8c2.2,13.8,2.2,27.4,2.5,41.2c0.1,3.4,1,6.6,1.7,9.8c0.3,1.4,1.4,2.5,2.3,1.1
				c3.7-5.8,12.5-8.2,11.1-17.4c-0.6-3.9,1.4-3.9,3.9-1.5c0.5,0.5,1,0.9,1.7,0.5c1.3-9.5,0.3-15.4-2.8-20.1
				c-7.5-11.1-10.4-23-6.5-36.3c1.8-6,4.9-12.2,1.6-18.6c-1.3-2.5-3-4.7-2.2-7.7c2.4-9.3,4-18.7,6.6-28
				C541.2,124.6,542.6,121.3,542.2,117.8z M681.4,398.8c-5.7,0.7-11,1.5-16.4,1.9c-2.4,0.2-4.4,0.7-6.3,2.3c-2.1,1.7-6,3.6-4.6,5.9
				c1.7,2.9,4.5-0.3,6.7-1.5c4-2.1,8.7-1.3,10.1,1.7c2.1,4.6-1.3,6.1-4.6,7.5c-2.6,1.1-2.4,2.1-0.4,3.7c4.1,3.2,6.8,7.6,9.5,12
				c3.1,5.2,5.6,5.5,8.7,0.1c2-3.5,4.3-6.8,7-9.5c2.9-2.9,3.7-4.7-0.8-6.5c-2.1-0.8-3.1-2.4-2.7-4.7c0.5-2.6,2.7-2.8,4.6-2.9
				c3-0.1,6-0.5,8.9,0.6c1.5,0.5,3,0.8,4-0.9c1.1-1.9-0.8-2.3-1.7-3.4C697.3,398.4,688.6,400.8,681.4,398.8z M622.5,483
				c18.1,3,35.8,2.6,51.6-8.7c2.4-1.7,4-1.7,6.1,0c7.1,5.9,15.6,9.3,24.1,12.4c5.3,1.9,11.2,2.8,17.7,2.3c-2.4-2.3-5-1.7-7-2.6
				c-16.1-6.7-28.4-17.1-33.2-34.7c-0.2-0.8-0.2-1.7-1.4-1.6c-0.9,0.1-1.6,0.7-1.6,1.6c0.1,2.9-2,4.9-3.3,7.1
				c-8.8,15.2-21.5,23.9-39.8,22.8C631.4,481.5,626.9,481.5,622.5,483z M524.5,141c-5.5,6.1-8.9,22.3-5.8,27.8
				C519.9,159.4,522.4,150.2,524.5,141z"/>
			<path class="st1" d="M458.9,516.5c5.1-2.8,6.7-8.4,9.7-12.8c5-7.2,10.4-14,15.7-21c1.9-2.4,5.9-2.5,6.9,0.1
				c2.9,8.3,10.1,12.3,16.6,16.9c17.8,12.7,37.8,20.8,58.5,27.4c3.5,1.1,6.9,2.4,10.5,2.6c7.7,0.4,10.2,5.4,12.5,11.8
				c2.2,6.2,6,11.9,9.4,17.6c8.1,13.8,14.6,28.4,22.8,42.1c10.1,17,21,33.5,34,48.5c6.1,7.1,12.1,14.3,19.1,20.7
				c6.1,5.6,12.9,4.9,19,2.7c22.9-8.4,39.5-24.2,51.4-45.5c9.6-17.3,15-36.2,23.1-54.1c3.5-7.7,6-16,9.5-23.9
				c2.1-4.8,4.9-7.4,10.5-8.2c12.7-1.8,24.1-7.7,35.6-12.9c12.6-5.7,24.2-13.1,34.9-22c11.9-9.8,20.9-21.5,24.6-36.8
				c0.4-1.5,0.6-3.3,2.8-4.2c1.4,13.4,9.2,24,14.9,35.5c8.9,18,13.7,37.2,14.3,57.4c0.6,21.4,0.3,42.7-3.7,63.6
				c-2.7,14.3-8.4,27.7-14.8,40.9c-5.2,10.6-12.8,19.3-19.6,28.7c-0.7,1-3,2.2-1,3.6c1.2,0.9,2.6-0.8,3.4-2
				c3.9-5.2,7.8-10.5,12.3-16.4c0.5,3.1,0.2,4.9-0.4,7c-0.6,1.8-2.2,4.4,0.9,6c0.9,0.5,0.5,1.3,0.2,2.1c-0.2,0.8-1.8-0.2-1.3,1.1
				c0.1,0.3,0.5,0.8,0.6,0.7c1.1-0.3,0.9-1.4,1-2.2c0.8-4.8,1.6-9.5,2.2-14.3c0.7-6.2,3.2-11.7,6-17.2c11.9-23.9,17-49.3,17-75.9
				c0-7.6,0-15.3,0-24c4.4,3.4,6.3,7.3,8.3,10.9c6.5,12,16.1,21.6,24.4,32.2c14.6,18.7,29.3,37.3,39,59.3
				c10.7,24.2,21.1,48.4,25.1,74.7c3.3,21.5,7.1,43.1,6.4,65c-0.3,10.8,4.6,19.5,9.5,28.2c11.6,20.6,20,42.4,26.5,65.1
				c8.6,30,10.1,60.6,8.5,91.5c-0.9,16.9-4.6,33.5-9.9,49.7c-0.5,1.6-0.8,3.2-1.2,4.8c-0.2,1.9-0.4,3.9-0.5,5.8
				c-2.8-1.9-2.9,0.7-3.1,2.1c-0.5,3-2.2,5.5-4.3,7c-3.7,2.5-1.9,3.9,0.3,5.6c1.5,1.2,2,3.4,4.1,4c-0.2,1.2-0.1,2.3,0.7,3.3
				c3.2,3.9,5.1,8.5,7.3,12.9c4.7,9.7,8.8,19.9,7.8,30.5c-1.3,15-3.9,29.9-7.1,44.7c-2.2,10-3.4,20.2-5.7,30.2
				c-2,8.9-2.7,18.7-9.9,25c-10.8,9.6-23.3,16.7-37.7,19.8c-0.3-0.5-0.6-0.9-0.9-1.4c5.1-8.6,10-17.2,9.9-27.7
				c-0.1-7.9-0.5-15.8-4.9-22.6c-7.8-12.1-19.4-19.6-33-24.7c0.6-0.8,1.1-1.7,1.8-2.3c8.1-6.3,13-14.9,17.2-23.9
				c0.5-1.1,3-2.9,0.4-4.1s-2.6,1.3-3.3,3c-6.6,15.4-16,27.7-33.7,31.3c-7.8,1.6-15.4,4-23,5.9c-17,4.3-34.1,8.4-51.3,12.1
				c-10.6,2.3-21,5.3-31.1,9.2c-10.9,4.2-21.8,8.1-32.8,11.9c-9,3-18.2,5.1-27.4,7.1c-2.6,0.6-4.5,3.1-7.4,2.3
				c-5.4-1.5-10.8-0.4-16.2,0.4c-3.2,0.5-4.6-0.4-4.7-4.1c-0.2-9.5,0.6-18.9,1.3-28.4c1.1-14.9,2.6-29.7,6.2-44.3
				c6-23.9,13-47.5,22.3-70.4c4.9-12,9.4-24,15.2-35.6c4.9-9.9,10.6-19.4,14.6-29.6c6.5-16.6,16-31.4,26.1-45.8
				c11.7-16.7,26.2-30.9,42.4-43.4c15.1-11.6,30.3-23,49-28.3c1.2-0.3,3.1-0.8,2.3-2.4c-0.7-1.5-2.2-0.4-3.5,0
				c-14.5,4.9-27.4,12.8-39.8,21.7c-18,13-34.4,27.7-48.2,45.2c-2.3,2.9-3.9,6.8-8,8l0.1,0.1c-0.3-0.8-0.2-1.5,0.3-2.3
				c3.1-5.8,5.5-11.9,7.3-18.2c0.3-1.1,1.6-3.1,0-4c-1.5-0.8-2.6,1-3.8,1.8c-1.5,1.1-1.4,2.4-1,4c0.3,1.1,0.7,2.9-0.7,3
				c-3.5,0.3-2.3,2.9-2.8,4.7c-0.6,2.1-0.3,4.2-0.9,6.3c-2.2,7.1-6.1,13.5-8.8,20.3c-1.8,4.7-3.7,5.3-8.2,3.1
				c-2.8-1.4-5.8-2.3-8.9-3.1c-4.1-1-8.4-1.3-12.4-2.4c-9.1-2.5-18.1-3.9-27.4-2.2c-6.2,1.1-12.2,3.3-18.3,4.9
				c-1.3,0.3-3,0.4-3.3,1.9c-0.3,1.8,1.6,2.2,2.8,2.9c0.7,0.4,1.6,0.6,2.3,0.9c12.9,6.6,27.2,6.9,41.1,9.2
				c5.5,0.9,10.7,2.3,14.8,6.3c3.9,3.8,4.5,8,2.1,12.8c-4.7,9.6-9.6,19.2-14.1,28.9c-6.2,13.5-11.3,27.5-16.7,41.3
				c-1,2.6-2.7,3.9-5.6,3.7c-4.8-0.3-9.7-0.3-14.5-0.8c-6.5-0.6-13-0.6-19.2,1.9c-6.7,2.7-7.2,6.4-1.4,11.2c1.2,1,2.5,1.9,4.1,2.7
				c7.5,3.6,15.2,6.6,23.3,8.3c2.9,0.6,3.3,1.5,2.5,4.3c-3.1,11.1-6,22.3-8.5,33.6c-5,22-6,44.4-6.8,66.8c-0.2,6.3-0.3,6.9-6.9,6.5
				c-8.9-0.5-17.9,0-26.7-1.7c-5.7-1.1-11.6,0.3-17.2-0.3c-11-1.3-22-2.4-33-3.5c-2-0.2-3.9-0.4-3.6-3c1-6.9-0.8-13.7-0.2-20.7
				c1.6-20.2,2.7-40.5,6.3-60.5c1.9-10.5,3.9-20.9,5.8-31.4c1.7-9.1,4.2-18.1,5.8-27.3c2-11.8,5.4-23.3,7.5-35.1
				c0.8-4.5,3.5-5.1,6.7-4.3c11.8,3.1,23.9,0.9,35.8,3.2c3.4,0.7,5.7-1.9,6.8-4.8s-1.1-4.5-3.4-5.8c-1.5-0.8-2.8-2-4.3-2.4
				c-10.2-3-20.6-5.1-31-6.7c-3.4-0.5-5.1-1.4-3.6-5.5c7.1-19.6,14.8-39,22.7-58.3c2.1-5.2,6.3-9.2,11.7-10.7
				c9.3-2.6,18.9-3.9,28.7-2.6c10.6,1.4,21.1,2.4,31.8,2.7c2.6,0.1,6.8,1.4,7.5-1.6c0.7-3.2-3-5.5-5.7-7.4c-0.5-0.4-1.2-0.5-1.8-0.8
				c-5.9-2-12-3.7-17.8-6.1c-13.5-5.6-26.9-6.7-40.6-1c-0.7,0.3-1.6,0.8-2.3,0.1c-0.8-1-0.6-2.4-0.1-3.3c2.9-4.6,3.1-10.1,5.4-14.9
				c0.4-0.9,0.6-1.9,1.2-2.7c11.3-15.3,27.4-18.7,44.6-15.8c14.5,2.4,28.8,2.4,43.3,2.3c1.3,0,2.7,0.1,3.3-1.6
				c0.5-1.5-0.7-2.2-1.5-2.9c-8.9-7.5-19.6-12.1-30.6-13.2c-19-2-38.1-1.5-55.1,10.8c-0.4-3.3,1.2-4.4,3.1-5.5
				c9-5.2,18.8-8.2,28.8-10.4c11.6-2.6,22.8,0.2,33.7,3.6c8.5,2.7,16.5,7,25.6,7.3c0.9,0,2.1,0.5,2.6-0.6c0.4-0.8-0.4-1.5-1-2.1
				c-11-10.6-24.4-16.9-39-20.2c-11.2-2.5-22.1,1.4-33.1,2.9c-6.1,0.8-11.8,3.5-18.3,6.2c1.9-5.2,5.8-6.8,9-7.8
				c10.1-3.4,20.2-6.5,29.4-11.9c0.9-0.5,2.7-0.6,2.4-2.1c-0.3-1.7-2-1.4-3.2-1.6c-6.2-1.3-11.9,2.1-17.9,2c-6.3-0.1-10.9,4-16.4,6
				c-1,0.4-2.4,1.6-2.8-0.1c-0.4-2.4-1.3-5.2,0.5-7.2c4.8-5.1,10-9.9,17-11.5c18.5-4.4,35.7,0.2,52.1,8.9c5.5,2.9,11.2,5.5,17.5,6.5
				c4.9,0.8,9.9,1.2,14.4,3.7c0.7,0.4,1.5,0.8,2.3,0.1c1-0.8,0.1-1.5,0-2.2c-0.6-3.1-2.6-5.4-4.7-7.4c-11.3-10.5-23.9-18.6-39.2-22
				c-18.7-4.2-37.1-4.9-55.5,1.1c-1.3,0.4-3,2-3.9,0.1c-0.8-1.9-1.1-4.3,0.8-6c0.8-0.8,1.9-1.4,2.9-1.8c13-4.9,25.7-10.5,39.3-13.6
				c2.6-0.6,5.2-1.2,7.7-1.8c0.9-0.2,1.5-0.7,1.5-1.7c-0.1-1.1-1-1.1-1.8-1.2c-13.4-1.6-26.9-2.7-40.1,1.4c-3.2,1-6.1,2.8-9.2,4.2
				c-1-3.9-0.4-6.7,2.7-9c9.1-7.1,18.1-15.1,30.8-13c9.8,1.6,19.5,3.7,29.4,4.9c11.6,1.4,22.5,5.7,34,7.3c1.9,0.3,4.8,2.1,6-0.2
				c1.4-2.8-2.4-2.7-3.6-4.2c-0.3-0.4-0.6-0.8-0.9-1.2c-9.5-8.9-19.3-17.6-31.8-21.8c-12.2-4.1-24.7-8.1-38-4.5
				c-9.6,2.6-19.8,3.5-28.5,10.1c0-3.6,0-6.4,0-9.2c0.1-11.2,0-11.6,10.4-15.2c16.8-5.9,32.9-13.9,51-16.2
				c6.8-0.8,13.3-2.6,20.2-1.4c3.4,0.6,6.8,0.9,9.3-2.4c0.4-0.6,2-0.1,1.9-1.7c-0.2-1.4-1.3-1.2-2.3-1.4c-16-3.4-32.2-5.1-48.6-4.9
				c-14,0.2-26.7,4.3-37.5,13.4c-0.8,0.7-1.6,2.5-3.3,1.6c-1.5-0.8-0.9-2.4-0.8-3.6c0.7-13.6,0.7-27.2-0.2-40.9
				c-0.4-6.1-0.2-12.3-0.3-18.5c0-0.9,0.4-2.2-1.1-2.3c-1.4-0.1-1.4,1.2-1.4,2.2c-0.1,2.3,0,4.7-0.1,7c-0.6,14,1.8,27.9,1.2,41.9
				c-1.6,35-0.7,70-2.2,104.9c-0.8,18.5,0.1,37-2.5,55.4c-3.2,22.7-9.6,44.6-18,65.9c-5.9,15.1-12.5,29.9-18.4,45
				c-5.7,14.8-11.6,29.6-14.7,45.4c-1.8,8.9-4,17.7-6.2,26.9c-2.1-3.5-2.1-3.5-2.2-7.3c-0.9-25.4-2-50.8-7.7-75.7
				c-2.7-11.6-3.7-23.6-5.5-35.3c-3.4-21.3-8.1-42.3-14.1-63c-2.9-9.9-6-20-12.1-28.6c-4-5.8-9.2-10.7-13.7-16.1
				c-6.2-7.4-12.1-15.1-17.7-23.1c-11.4-16.3-16.7-33.8-14.8-53.7c1.2-13,4.1-26,1.5-39.2c-1.7-8.8-3.3-17.7-5.4-26.5
				c-0.7-3.1,0.1-6.9-3.2-9.5c-0.9,8.3,2.1,15.8,3.9,23.2c3.6,15.1,3.3,30.1,1.4,45.1c-2.4,18.7-0.9,36.4,8.9,52.8
				c3,5,6.2,9.7,9.3,14.6c-2.2-0.6-3.9-1.7-5.4-2.9c-5.3-4.2-10.3-8.7-15.9-12.5c-6.3-4.3-11.8-8.9-13.2-17c-0.7-4.4-2-8.7-3.3-12.9
				c-4.9-15.8-8.1-31.9-5.2-48.5c0.2-1.4,0-2.2-1.8-2.5c-2.2,8.7-1.5,17.5-0.7,26.2c1.1,12.1,5.9,23.3,8.1,35.1
				c0.2,1.4,1.5,3.1-0.2,4c-1.3,0.7-2.3-1-3.2-1.9c-17.1-15.9-30.2-34.8-40.1-55.7c-6.2-13-12.8-25.6-19.8-38.1
				c-0.7-1.3-1.8-2-3.3-2.8c-8-3.9-15.4-8.7-22.1-14.6c-15.2-13.6-27.4-29.6-36.7-47.7c-2.2-4.3-3.9-9-5-13.4
				c-1.7-6.2-2.8-12.8-3.9-19.3c-2.9-16.5-2.5-32.7,3.1-48.7c2-5.5,5.1-10.6,5.8-16.6C459,517.1,459.1,516.8,458.9,516.5z
				 M879.6,744.3c-15.2-10.2-31.7-11.4-48.7-10.1c-3.6,0.3-7.3,0.9-10.9,1.4c-1.4,0.2-3.5-0.5-3.6,1.6c-0.1,1.6,1.5,2.3,3.1,2.7
				c6.3,1.4,12.4,3.5,18.4,5.8c11.4,4.3,22.9,8.4,33.3,15c3.2,2,5.3,4.4,4.6,8.4c-2.1,12.1-2.1,24.5-4.7,36.6
				c-0.6,2.8-0.6,3.8-3.8,1.9c-10.5-6.6-21.7-10.5-34.3-7.4c-1.3,0.3-3.4-0.7-3.9,1.2c-0.6,2.3,2.2,1.9,3.2,3.1
				c0.4,0.5,1.2,0.6,1.8,0.9c10.5,4.1,20.9,8.3,31.5,12.2c2.1,0.8,3.8,1.4,3.5,3.9c-0.2,2.1-0.4,4.3-0.9,6.3
				c-3.1,11.4-4.8,23-5.4,34.8c-0.8,15.4-1.6,30.8-6.5,45.6c-0.6,1.8-1,4.5,2,5.6c3.1-13.2,6-26.1,7.5-39.4
				c1.4-12.4,4-24.7,4.9-37.1c1.1-15.1,6.2-28.5,13.7-41.4c10.9-18.7,24.7-35.7,32.5-56.3c-7.7,11.1-13.2,23.5-21.1,34.4
				c-8.2,11.3-15.4,23.1-21.5,35.7c2.3-37.1,10.7-73.2,17.4-110.4c-1.5,0.8-2.2,1-2.3,1.3c-1.2,6.3-5,5-9.1,3.4
				c-5.6-2.2-11.3-4-17.4-3.7c-1,0-2.3-0.3-2.6,0.9c-0.2,1,0.5,1.9,1.5,2.4c2.2,1.1,4.4,2.3,6.8,3.1c12,3.9,16.2,10.4,14.3,22.6
				C882.1,734.1,880.8,738.8,879.6,744.3z M556.6,618.6c6.9,0.9,13-1.7,19.2-3.6c8.9-2.6,16.4-7.5,22.6-14.3c0.7-0.7,1.6-1.4,1-2.5
				s-1.7-0.6-2.7-0.7c-5.7-0.7-11,1.7-16.3,2.9c-14.4,3.3-28.8,2.4-42.1-2.5c-16.7-6.2-32.4-14.8-47.3-24.7c-0.9-0.6-1.7-2-2.9-1
				c-1.1,0.9-0.6,2.2-0.1,3.2c4.8,11.9,10.2,23.4,21.6,30.6C523.9,615.2,540.3,616.8,556.6,618.6z M780.1,604.9c-2.4,0-5.2-0.1-8,0
				c-1.3,0-3.2-1.2-3.5,1.3c-0.2,1.9,0.8,2.9,2.7,3.6c3.4,1.3,6.6,2.9,9.8,4.4c18.7,8.4,37.9,11.9,58,5.6
				c16.7-5.3,30.4-14.7,39.7-29.9c1.1-1.8,3.9-4.5,1.8-6.3c-1.2-1-5-0.7-7.2,1.3c-0.7,0.7-1.7,1.1-2.5,1.6
				c-17.9,11-37.4,16.9-58.4,18.5C801.8,605.9,791.2,605.9,780.1,604.9z M841.8,922.4c1-6.5,1.6-6.8,6.6-3.2
				c1.5,1.1,2.9,2.2,4.5,3.1c1,0.6,1.6,2.5,3.2,1.1c1.1-1,1.6-2.7,0.9-3.6c-3.6-4.9-3.8-11.7-9.5-15.4c-6.3-4.1-13-5.8-20.7-5.6
				c-15.7,0.5-31.5,1.5-47.3,0.6c-3.9-0.2-7.9-0.3-11.7,1c-1,0.3-1.9,0.3-2,1.7c0,0.9,0.1,1.9,1.1,1.9c6.5,0,11.8,4.7,18.5,4.2
				c5.6-0.4,11.3-0.1,17,0.1C816.9,908.8,831.2,910,841.8,922.4z M743.2,704.2c-1.4,4-2.6,7.8-2.4,11.9c1,26.9-2.7,53.4-11,78.9
				c-4.1,12.6-7.5,25.3-9.7,38.2c-1.7,10.4-2.6,21-3,31.6c-0.9,20.8-2.8,41.6-2.3,62.4c0.1,2.8-0.8,5.6-1.2,8.4
				c-0.2,1.2-0.4,2.8,0.9,3c1.9,0.2,1.6-1.6,1.8-2.9c0-0.5,0.1-1,0.2-1.5c2.5-20.5,1.3-41.2,2.3-61.8c1.3-26,4.1-51.5,12.7-76.2
				c4.7-13.5,8.6-27.4,10.1-41.7c1.4-12.7,1.2-25.6,1.7-38.4C743.3,712.2,743.2,708.2,743.2,704.2z M540.4,643.8
				c8.6,0.9,16.3-2.3,24.2-4.7c1.1-0.3,2-0.8,1.8-1.9c-0.1-0.9-1.1-1.2-2-1c-5.4,0.7-10.4-1.6-15.7-2.2c-11.4-1.3-22.5,0.3-33.6,2.5
				c-1.2,0.2-3.3,0.7-3.4,2.3c-0.1,1.8,2,2.4,3.4,3.3c0.7,0.4,1.6,0.5,2.4,0.6C525.2,643,532.8,643.4,540.4,643.8z M828.4,646.3
				c5.2,0.5,9.6-2.1,14.3-3.2c7-1.6,12.5-4.9,17.4-9.8c0.9-0.9,2.3-1.8,1.2-3.4c-0.9-1.3-2.5-1.4-3.6-0.9c-2,0.7-3.9,1.8-5.6,3
				c-3.7,2.5-8,4.6-12.1,5c-10.4,1.1-20.9,1.6-31.4,0.5c-1.3-0.1-2.8-2.1-3.8,0.2c-0.7,1.7,0.6,2.5,2,3.4
				C813.5,645.4,821,645.9,828.4,646.3z M855.3,656.3c-4-1.9-7.6-2.4-12-0.9c-4.3,1.4-8.7,3.2-13.5,3.1c-6.7-0.2-13.2,1.3-19.5,3.3
				c-1.8,0.6-3.8,1-3.4,3.3c0.5,2.5,2.5,2.5,4.7,2.2c5.6-0.7,11.3-2.1,16.8-0.9c7.5,1.7,13.9-1,20.6-3.4
				C852.2,661.9,854.2,659.6,855.3,656.3z M523.7,661.9c7.2,5.1,14.6,6.5,23.5,4.6c7.8-1.7,14.2-7.1,22.2-7.8
				c0.8-0.1,1.2-0.5,0.9-1.3s-1.1-1.2-2-1.2c-3,0.1-6,0.3-8.9,0.5c-11.4,0.5-23-0.7-33.4,5.4C524.8,662.7,524.5,660.6,523.7,661.9z
				 M941.4,649.2c-1.1,15.1-2.5,30.1-6.5,44.7c-4,14.7-10.5,28.3-17.9,42.6C929.8,727.5,947.9,662.4,941.4,649.2z M845.9,921.5
				c0,2.3-0.2,4.6,2.1,5.6c1.1,0.4,2.6-0.8,2.5-1.8C850.2,923,848.4,921.9,845.9,921.5z"/>
			<path class="st2" d="M1006.4,1232.8c14.4-3.1,26.9-10.3,37.7-19.8c7.1-6.3,7.8-16.1,9.9-25c2.3-10,3.5-20.2,5.7-30.2
				c3.2-14.7,5.8-29.7,7.1-44.7c0.9-10.6-3.2-20.9-7.8-30.5c-2.2-4.5-4.1-9-7.3-12.9c-0.8-1-0.9-2.1-0.7-3.3
				c3.1-0.7,2.7,2.6,4.2,3.8c1.6,1.3,1.9,3.7,3.8,4.9c2.4,6,4.8,12,7.1,18c4.6,12.1,3.8,24.3,1.2,36.7c-3.4,16.6-6,33.4-9,50
				c-1.3,7.3-2.7,14.6-4.7,21.8c-3.1,11.3-11.7,17.5-21,23.2c-11.1,6.9-23.2,11.3-35.5,14.9c-20.9,6.1-42.5,9.4-63.9,13.2
				c-10,1.8-20,3.4-30,4.8c-15,2-30.1,3-45.1,4c-17.4,1.2-34.8,3-52.3,2.7c-29.3-0.5-58.6,1.5-87.9,0.3
				c-34.8-1.4-69.6-2.1-104.2-6.1c-13-1.5-26-4.6-39-5.3c-13.5-0.8-26.8-2.8-40-5.2c-14-2.5-28-5.2-42.4-9c3.2-1.1,5.6-1,8.2-0.3
				c8.6,2.4,17.4,4.1,26.2,5.6c2.7,0.5,3.7-0.3,4.2-2.6c3.1-13,4.7-25.8-1.8-38.4c-1.7-3.2-3.4-4.8-7.5-4.8
				c-20.6,0.5-41.3,1-61.9-0.1c-5.9-0.3-5.6-0.3-3.7,5.3c2.8,8.1,4.6,16.4,2.7,24.9c-0.8,3.6,0.5,5.3,4.1,5.5
				c3.8,0.2,7.6,0.5,11.4,0.7c2.4,0.2,5,0,7.2,1.8c-1,1.8-2.7,1.1-4,0.9c-20.7-1.9-41.4-3.6-62.1-5.9c-6-0.7-12-2.2-17.2-5.9
				c-3.2-2.2-5.6-4.8-7.2-8.5c-2-4.6-0.1-7.4,3.4-9.5c8-5,17.1-7.2,26.3-8.7c9.2-1.5,18.5-2.2,27.7-3.3c0.9-0.1,2.2,0.4,2.7-0.8
				c0.4-1.1-0.6-1.6-1.2-2.4c-20.4-24.5-40-49.7-57.7-76.2c-1.7-2.6-2.9-5.6-5.2-7.8c-4-8-8-15.9-11.9-23.9c-2.4-5-4.6-10.2-7-15.3
				c3.2-0.2,3.8,2.6,4.5,4.5c3.9,11.1,9.8,21.1,15.6,31.2c12.2,21.2,26.9,40.5,42.2,59.5c7.8,9.7,14.9,19.9,24,28.3
				c1.5,1.4,2.8,2.5,5.1,2.7c12.8,1.1,25.6,1.8,38.4,1.2c23.9-1.1,47.7-0.9,71.5-0.2c18.2,0.5,36.2,3.9,54.5,3.4
				c5.3-0.1,10.6,0.4,15.9,1.1c9.7,1.2,19.6,1.5,29.3,2.3c3.5,0.3,4.4-1.1,4.4-4.5c0-16.5,0.8-32.9,2.5-49.3c2-19.4,5-38.5,9-57.5
				c0.7-3.3,1-6.6,1.5-9.9c0.1-1,0.4-2.1-1-2.3c-1.1-0.2-1.3,0.8-1.7,1.4c-1.5,2-1.9,4.4-3.6,6.4c-5.5,6.4-23.4,8.8-33.5,4.9
				c-12.9-5-23.9-12.8-33-23.3c-8.4-9.7-15.3-20.2-18.2-33c-2.4-10.6-4.9-21.1-7.5-31.7c-3.1-12.2-6.7-24.3-9.5-36.6
				c-4.2-18.8-7.4-37.8-13.2-56.2c-4-12.8-11.1-23.1-22.8-30.6c-7.8-5-16.5-7.2-24.9-9.9c-13.5-4.4-27.4-7.7-41-11.7
				c-20.4-6-41.5-9.5-61.7-16.3c-12.5-4.2-24.3-9.6-34.4-18.1c-3-2.5-4.4-2.4-6.5,0.8c-6.6,10.3-13.2,20.4-17.7,32
				c-4.6,11.9-7.5,24-9.6,36.4c-5.7,34.1-4.2,68.1,2.7,101.7c3.2,15.7,5.6,31.7,10.8,47c0.5,1.5,1.1,2.9-0.6,3.9
				c-3.6-7.7-5.2-16-7.1-24.1c-3.4-15.2-6.3-30.5-8.5-45.9c-3.2-22.2-3.3-44.3-1.5-66.6c1.1-13.3,3.9-26.2,7-39
				c3.6-15.1,10.8-28.6,19-41.5c1.4-2.2,2.9-4.4,4.2-6.7c1-1.7,1.4-3.7,0.1-5.2c-7.7-8.5-13.3-18.4-19-28.3
				c-0.2-0.3-0.4-0.5-0.7-0.7c3.1-2.1,4.1,0.5,5.1,2.5c9.3,18.8,22.3,33.8,41.7,42.7c6,2.7,11.8,6,18,8.1c5.6,1.9,11.6,2.7,17.5,3.9
				c13.6,2.9,27,6.6,40.4,10.4c13.1,3.7,26.4,7.1,39.5,10.9c8.6,2.5,16.9,5.7,26.4,9c-2.8-6.7-2.9-12.9-4-18.9
				c-2.9-16.2,8.3-31.8,22.2-38.5c0.9-0.5,1.8-0.9,2.7,0c1,0.9,1.2,2.1,0.6,3.2c-0.5,1-1.3,1.9-2.1,2.8
				c-10.7,11.3-15.9,24.8-16.3,40.3c-0.2,7.3,2.3,13.3,7,18.9c4.1,4.8,8.1,9.8,10.8,15.9c2.8,6.3,5.4,12.7,7.7,20.8
				c4.6-11.4,11.9-18.7,21.1-24.3c5.7-3.4,11.3-6.9,17.3-9.6c1.4-0.6,3-1.1,3.9,0.6c0.8,1.5-0.4,2.4-1.6,3.2c-1.7,1-3.2,2.2-4.9,3.3
				c-12.2,8.1-19.4,20.2-25.7,32.8c-2.7,5.5-4.8,11.9-4.4,18.1c0.4,7.4,2.7,14.7,4.4,21.9c5.6,24.1,12.7,47.8,18.2,72
				c1.9,8.2,6.5,15.4,11.6,22.2c11.5,15.3,25.4,27.3,45.1,29.9c9.3,1.2,18.5,0.2,24.5-8.4c5.1-7.4,6.3-16.4,8.2-25
				c1.8-8.3-0.2-16.6,0-24.8c0.5-15.2-1.5-30.2-3.1-45.3c-0.8-6.8-1.1-7.3-8.1-6.8c-14,0.9-28,0.4-42,0.7c-1.6,0-3.9,0.7-4.4-1.2
				c-0.5-1.9,1.7-2.9,3.2-3.8c13.5-8.8,28.1-11.7,43.7-6.8c4.1,1.3,4.4-0.2,3.5-3.4c-0.8-3-1.9-6-1.8-9.2c0-3.6-1.4-4.8-5.1-4.6
				c-14.5,0.7-28.9-0.1-43.2-3c-1.3-0.3-2.8,0-3.3-1.7c-0.4-1.8,1.3-2.1,2.2-2.8c1.4-1.1,3.1-1.9,4.4-3.1
				c10.5-9,21.9-15.3,36.5-13.1c3.5,0.5,4.5-0.8,3.7-4.2c-1.8-8.4-3.7-16.9-5.1-25.4c-0.6-3.8-2.4-4.8-5.7-3.9
				c-9,2.6-18.5,2.1-27.3,5.3c-1.6,0.6-3.5,1.1-4.5-0.6c-1.1-1.8-0.4-3.3,1.2-4.8c2.7-2.4,5.4-4.7,8.7-6.4c6.6-3.4,13.8-4.4,21-5.2
				c2.5-0.3,3.1-1,2.4-3.5c-1.6-6.4-3.8-12.6-5.9-18.9c-1-2.9-2.8-3.7-5.3-3.2c-9.2,1.8-18.6,1.2-27.9,2.2
				c-9.9,1.1-19.9,1.3-29.9,1.9c-1.2,0.1-2.8,0.5-3.5-1.1c-0.9-1.8,0.8-2.2,1.7-3.1c4.4-4.5,9.5-7.9,15.1-10.8
				c10.7-5.6,22.3-5.9,33.8-7.5c1.4-0.2,3.4,0.7,4.1-0.8c0.8-1.7-1-2.9-2-4.2s-2-2.7-3.1-3.9c-1.9-2.1-3.2-4.2-6.7-5
				c-7.8-1.8-15.3-0.2-22.8,0.4c-11.7,0.9-22.5,4.9-32.7,10.8c-5.7,3.4-9.3,8.7-13.4,13.6c-0.7,0.8-1.4,2.5-3.2,1.3
				s-0.5-2.3-0.1-3.4c2.4-5.7,5.6-10.7,10.5-14.7c7.9-6.4,14.9-14,24.9-17.6c6.2-2.2,12.6-2.9,18.9-4.7c0.7-0.2,1.9,0.2,1.9-1
				c0-0.7-0.4-1.7-1-2.1c-1.2-0.8-2.6-1.7-4-1.9c-6-1.2-12-2.2-18-3.3c-3-0.5-6-1-8.9-0.4c-11,2.2-22.5,2.4-32.7,8
				c-0.9,0.5-2.5,0.9-3.2-0.2c-0.5-0.8,0.2-1.7,1-2.6c5.1-5.6,10.4-10.6,17.9-12.8c7-2.1,14.1-3.8,21.6-3.1c1.1,0.1,2.7,0.4,3.1-0.8
				c0.5-1.5-1.2-2.1-2.2-2.8c-0.7-0.5-1.4-0.6-2.3-0.5c-5.7,0.7-11.5,0.6-17.2,1.6c-2.2,0.4-6,3-7-0.2c-0.7-2.2,3.7-2.5,5.8-3.5
				c3.6-1.7,8-1.8,11.2-4.7c-9.2-0.7-18.3-1.1-27.4,0.8c-6.8,1.4-12.7,4.4-17,9.6c-8,9.5-14.6,20-19,31.7c-3,8-5.2,16-4.1,24.7
				c0.2,1.6,0.1,3.3-1.2,4.8c-3.8-3.1-3.6-7.7-4.5-11.8c-4.4-19.9-2.7-39.1,6.7-57.6c2.4-4.7,8-5.4,10.2-9.4
				c2.5-4.7,6.8-5.9,10.9-7.7c8-3.6,16.5-5.4,25.5-5.9c-2-4.1-2-4.5-4.9-4.7c-18.6-1-37.1-1.2-54,8.8c-1.3,0.8-2.7,1.2-4,2
				c-1,0.6-2.2,1.5-3.1,0.3s0.4-2.1,1.1-2.9c5.2-5.6,11.6-9.3,18.3-12.6c9.5-4.7,19.7-4.3,29.8-4.4c2.3,0,4.6,0.3,6.2-2
				c-1.4-1.5-3.2-1.5-4.7-1.6c-14.1-0.4-27.8-3.6-41-7.9c-15.9-5.2-31.5-5.9-47.7-3.7c-15.2,2-28.3,7.9-37.4,20.7
				c-3,4.2-6.5,7.9-10,11.7c-0.8,0.8-1.2,2.4-2.6,1.8c-1.2-0.5-0.9-2-0.7-3.1c2.2-10.4,5.4-20.4,13.5-28c1.9-1.8,4.6-4,5.5-5.6
				c2.8-5.2,8-6.8,12.3-9.1c6.6-3.5,14.1-4.4,21.7-5c16.3-1.2,32.1,2.6,48.2,3.8c6.6,0.5,13,2.3,19.3,4.5c3.9,1.3,7.7,3.7,12.1,4
				c-0.1-3.3-2.4-5.1-3.5-7.5c-4.6-10.6-8.4-21.5-15-31.2c-1.6-2.4-3.2-3.6-6.4-3.6c-7.9-0.1-15.4,2.7-23.2,2.9
				c-14,0.4-27.9,1.3-41.8,3.3c-10.5,1.6-21,3.8-31.7,2.8c-1.9-0.2-4.4,0.6-5.3-1.8c-0.7-2.2,1.6-3.1,2.9-4.1
				c10-7.9,19.8-16.1,32.2-20c11.7-3.7,23.3-6,35.6-1.5c4.2,1.6,8.2,4.6,13.1,4.2c1,1.1,2.5,1.9,3.3,0.5c0.9-1.6-1.3-1.3-2.1-1.9
				c-8.2-7.5-15.9-15.4-23.2-23.8c-12.7-14.7-20.6-31.7-25.7-50.3c-2.2-7.9-2.9-16.1-5.1-24.9c-3.5,5.2-7.1,9.4-9.5,14.3
				c-4.9,9.9-11.5,18.5-17.9,27.3c-1.9,2.7-3.4,6.1-7.2,7c4.4-6.3,9.1-12.6,13.3-19.1c6.8-10.5,13.5-21.1,19.9-31.8
				c2.6-4.4,1.2-9.7,2-14.6c2.1-12.4,4-24.7,11.8-35.1c0.4-0.6-0.3-1.8,1-1.9c-0.7,6-3.8,11.1-5.8,16.6c-5.7,16-6,32.1-3.1,48.7
				c1.1,6.5,2.3,13.1,3.9,19.3c1.2,4.4,2.8,9.1,5,13.4c9.3,18.1,21.5,34.1,36.7,47.7c6.7,6,14.1,10.7,22.1,14.6
				c1.5,0.7,2.6,1.5,3.3,2.8c7,12.5,13.7,25.1,19.8,38.1c9.9,20.9,23,39.8,40.1,55.7c0.9,0.9,1.9,2.6,3.2,1.9c1.7-0.9,0.5-2.7,0.2-4
				c-2.2-11.8-7-23-8.1-35.1c-0.8-8.8-1.5-17.5,0.7-26.2c1.9,0.3,2.1,1.1,1.8,2.5c-2.9,16.7,0.3,32.7,5.2,48.5
				c1.3,4.2,2.6,8.5,3.3,12.9c1.4,8.1,6.9,12.6,13.2,17c5.5,3.8,10.6,8.3,15.9,12.5c1.5,1.2,3.2,2.3,5.4,2.9
				c-3.1-4.9-6.3-9.7-9.3-14.6c-9.8-16.4-11.3-34.1-8.9-52.8c1.9-14.9,2.3-30-1.4-45.1c-1.8-7.4-4.7-14.9-3.9-23.2
				c3.3,2.6,2.5,6.4,3.2,9.5c2.1,8.8,3.6,17.6,5.4,26.5c2.6,13.2-0.2,26.2-1.5,39.2c-1.9,19.9,3.4,37.4,14.8,53.7
				c5.6,8,11.5,15.7,17.7,23.1c4.5,5.4,9.7,10.3,13.7,16.1c6,8.7,9.1,18.7,12.1,28.6c6.1,20.7,10.8,41.7,14.1,63
				c1.9,11.8,2.9,23.7,5.5,35.3c5.7,24.9,6.8,50.3,7.7,75.7c0.1,3.8,0.1,3.8,2.2,7.3c2.1-9.2,4.4-18,6.2-26.9
				c3.1-15.7,8.9-30.5,14.7-45.4c5.9-15.1,12.4-29.9,18.4-45c8.4-21.3,14.8-43.2,18-65.9c2.6-18.3,1.7-36.9,2.5-55.4
				c1.5-35,0.6-70,2.2-104.9c0.6-14-1.8-27.9-1.2-41.9c0.1-2.3,0.1-4.7,0.1-7c0-1,0.1-2.2,1.4-2.2c1.5,0.1,1.1,1.4,1.1,2.3
				c0.1,6.2-0.1,12.3,0.3,18.5c0.9,13.6,0.9,27.2,0.2,40.9c-0.1,1.2-0.7,2.8,0.8,3.6c1.6,0.9,2.4-0.9,3.3-1.6
				c10.9-9.2,23.5-13.3,37.5-13.4c16.4-0.2,32.6,1.5,48.6,4.9c0.9,0.2,2.1-0.1,2.3,1.4s-1.4,1.1-1.9,1.7c-2.5,3.4-5.9,3-9.3,2.4
				c-6.9-1.2-13.4,0.6-20.2,1.4c-18.1,2.3-34.2,10.3-51,16.2c-10.4,3.6-10.3,4.1-10.4,15.2c0,2.8,0,5.7,0,9.2
				c8.7-6.6,18.9-7.5,28.5-10.1c13.3-3.6,25.8,0.4,38,4.5c12.5,4.2,22.3,12.9,31.8,21.8c0.4,0.3,0.6,0.8,0.9,1.2
				c1.2,1.5,5,1.3,3.6,4.2c-1.2,2.3-4,0.5-6,0.2c-11.5-1.6-22.5-6-34-7.3c-9.9-1.2-19.6-3.3-29.4-4.9c-12.6-2-21.6,5.9-30.8,13
				c-3,2.4-3.6,5.1-2.7,9c3.1-1.5,6-3.2,9.2-4.2c13.2-4.2,26.6-3.1,40.1-1.4c0.8,0.1,1.7,0.1,1.8,1.2c0.1,1-0.5,1.5-1.5,1.7
				c-2.6,0.6-5.2,1.2-7.7,1.8c-13.6,3.1-26.3,8.7-39.3,13.6c-1.1,0.4-2.1,1.1-2.9,1.8c-1.9,1.7-1.6,4.2-0.8,6
				c0.8,1.9,2.6,0.3,3.9-0.1c18.4-6.1,36.9-5.4,55.5-1.1c15.4,3.5,27.9,11.5,39.2,22c2.2,2,4.1,4.3,4.7,7.4c0.1,0.7,1,1.4,0,2.2
				c-0.8,0.6-1.6,0.3-2.3-0.1c-4.5-2.5-9.5-2.8-14.4-3.7c-6.3-1.1-11.9-3.6-17.5-6.5c-16.4-8.7-33.5-13.2-52.1-8.9
				c-7,1.6-12.2,6.5-17,11.5c-1.9,2-1,4.8-0.5,7.2c0.3,1.7,1.7,0.5,2.8,0.1c5.4-2,10-6.1,16.4-6c6,0.1,11.7-3.4,17.9-2
				c1.3,0.3,3-0.1,3.2,1.6c0.2,1.5-1.5,1.5-2.4,2.1c-9.2,5.4-19.3,8.6-29.4,11.9c-3.2,1.1-7.1,2.6-9,7.8c6.6-2.7,12.2-5.4,18.3-6.2
				c11-1.5,21.9-5.4,33.1-2.9c14.7,3.3,28,9.6,39,20.2c0.6,0.6,1.4,1.2,1,2.1c-0.5,1.1-1.7,0.7-2.6,0.6c-9.2-0.3-17.1-4.6-25.6-7.3
				c-10.8-3.4-22.1-6.1-33.7-3.6c-10,2.2-19.8,5.2-28.8,10.4c-2,1.1-3.5,2.2-3.1,5.5c16.9-12.4,36.1-12.8,55.1-10.8
				c11,1.1,21.7,5.7,30.6,13.2c0.8,0.7,2,1.4,1.5,2.9c-0.5,1.7-1.9,1.6-3.3,1.6c-14.5,0.1-28.8,0.1-43.3-2.3
				c-17.2-2.9-33.3,0.5-44.6,15.8c-0.6,0.8-0.8,1.8-1.2,2.7c-2.2,4.8-2.5,10.3-5.4,14.9c-0.6,0.9-0.8,2.3,0.1,3.3
				c0.6,0.7,1.5,0.2,2.3-0.1c13.7-5.7,27.1-4.6,40.6,1c5.8,2.4,11.9,4.1,17.8,6.1c0.6,0.2,1.3,0.4,1.8,0.8c2.7,1.9,6.4,4.1,5.7,7.4
				c-0.7,3-4.9,1.7-7.5,1.6c-10.6-0.4-21.2-1.3-31.8-2.7c-9.7-1.3-19.3,0.1-28.7,2.6c-5.3,1.5-9.5,5.5-11.7,10.7
				c-7.9,19.3-15.6,38.7-22.7,58.3c-1.5,4.1,0.2,4.9,3.6,5.5c10.5,1.7,20.9,3.7,31,6.7c1.5,0.5,2.8,1.7,4.3,2.4
				c2.4,1.2,4.5,2.9,3.4,5.8s-3.4,5.4-6.8,4.8c-11.8-2.3-24-0.1-35.8-3.2c-3.2-0.8-5.9-0.3-6.7,4.3c-2.1,11.8-5.5,23.2-7.5,35.1
				c-1.5,9.1-4.1,18.1-5.8,27.3c-1.9,10.5-3.9,20.9-5.8,31.4c-3.6,20-4.8,40.3-6.3,60.5c-0.5,7,1.3,13.8,0.2,20.7
				c-0.4,2.5,1.5,2.8,3.6,3c11,1,22,2.2,33,3.5c5.6,0.6,11.5-0.8,17.2,0.3c8.9,1.7,17.8,1.2,26.7,1.7c6.6,0.4,6.7-0.1,6.9-6.5
				c0.9-22.4,1.8-44.9,6.8-66.8c2.6-11.3,5.5-22.5,8.5-33.6c0.8-2.8,0.4-3.7-2.5-4.3c-8.1-1.7-15.8-4.7-23.3-8.3
				c-1.5-0.7-2.9-1.7-4.1-2.7c-5.7-4.8-5.3-8.5,1.4-11.2c6.2-2.4,12.6-2.4,19.2-1.9c4.8,0.4,9.6,0.4,14.5,0.8
				c2.9,0.2,4.5-1.1,5.6-3.7c5.5-13.8,10.5-27.9,16.7-41.3c4.5-9.7,9.4-19.3,14.1-28.9c2.4-4.8,1.8-9-2.1-12.8
				c-4.1-4-9.4-5.4-14.8-6.3c-13.9-2.3-28.2-2.6-41.1-9.2c-0.7-0.4-1.6-0.5-2.3-0.9c-1.2-0.7-3.1-1.1-2.8-2.9c0.3-1.5,2-1.6,3.3-1.9
				c6.1-1.6,12-3.7,18.3-4.9c9.4-1.7,18.4-0.3,27.4,2.2c4,1.1,8.3,1.4,12.4,2.4c3.1,0.8,6.1,1.8,8.9,3.1c4.6,2.2,6.4,1.6,8.2-3.1
				c2.7-6.9,6.6-13.2,8.8-20.3c0.7-2.1,0.4-4.3,0.9-6.3c0.5-1.9-0.6-4.4,2.8-4.7c1.4-0.1,1-1.9,0.7-3c-0.4-1.6-0.5-2.9,1-4
				c1.2-0.8,2.3-2.6,3.8-1.8c1.6,0.9,0.3,2.9,0,4c-1.8,6.3-4.1,12.4-7.3,18.2c-0.5,0.8-0.6,1.5-0.3,2.3c-3.7,1.3-1.9,4.8-3,7.1
				c2.2-1.9,3.6-4.2,2.9-7.2c4.1-1.2,5.6-5,8-8c13.8-17.5,30.2-32.2,48.2-45.2c12.4-8.9,25.3-16.8,39.8-21.7c1.2-0.4,2.8-1.5,3.5,0
				c0.8,1.7-1.1,2.1-2.3,2.4c-18.7,5.3-33.9,16.6-49,28.3c-16.2,12.5-30.6,26.7-42.4,43.4c-10.1,14.4-19.6,29.2-26.1,45.8
				c-4,10.2-9.7,19.8-14.6,29.6c-5.8,11.6-10.3,23.7-15.2,35.6c-9.3,22.9-16.4,46.5-22.3,70.4c-3.6,14.6-5.2,29.4-6.2,44.3
				c-0.7,9.4-1.5,18.9-1.3,28.4c0.1,3.8,1.5,4.6,4.7,4.1c5.4-0.8,10.7-1.9,16.2-0.4c2.9,0.8,4.9-1.7,7.4-2.3c9.2-2,18.4-4,27.4-7.1
				c11-3.7,22-7.7,32.8-11.9c10.1-3.9,20.6-6.9,31.1-9.2c17.2-3.7,34.2-7.9,51.3-12.1c7.7-1.9,15.3-4.3,23-5.9
				c17.7-3.6,27.1-15.9,33.7-31.3c0.7-1.6,0.7-4.2,3.3-3s0.1,3-0.4,4.1c-4.2,9-9.1,17.6-17.2,23.9c-0.7,0.6-1.2,1.5-1.8,2.3
				c13.6,5.2,25.1,12.6,33,24.7c4.4,6.7,4.8,14.7,4.9,22.6c0.1,10.5-4.8,19.1-9.9,27.7c-0.6,0.2-1.2,0.6-0.8,1.2
				C1005,1233.6,1005.7,1233.4,1006.4,1232.8z M662.8,1259.9c11.4,0,11.4,0,15.6-8.4c0.7-1.5,1.4-3,2.2-4.4
				c5.4-8.8,7.8-18.2,6.7-28.5c-0.9-8-3.1-10.5-10.7-11.7c-2-0.3-4-0.2-5.9-0.4c-22-2.2-43.9-4.5-66-4.4c-4.6,0-9.3-0.6-13.9-0.9
				c-6.1-0.4-12.1-2.4-18.3-1.5c-1.8,0.3-3.3,0.2-2.4,2.9c1.7,5.9,3.2,11.8,4.6,17.8c1.9,8.1,3.9,16.4,0.5,24.5
				c-2,4.7-0.5,5.9,4,6.5c14.3,1.9,28.7,3.2,43.1,5C636.4,1258.3,650.6,1258.9,662.8,1259.9z M911.2,1253.2c3.8,0,7.1,0.7,10.1-0.1
				c10.1-2.8,20.6-3.6,30.7-6.3c9.2-2.4,20.2-1.2,25.9-11.8c2.3-4.3,6.1-7.8,8.5-12.1c5.3-9.6,6.5-19.8,1.8-30.1
				c-5.5-11.8-15.9-18.1-26.8-23.9c-6.6-3.5-13.1-3.6-20.2-1.4c-12.5,4-25.4,6.7-38.1,9.7c-9.2,2.2-18.5,4.2-28.1,7.1
				c1.7,0.8,3,1.4,4.3,2c0.5,0.2,0.9,0.4,1.4,0.5c12.3,2.6,22.1,9.7,30.8,18.1c10.2,9.8,13.5,21.5,7.8,35.3
				C917.4,1244.9,913.3,1248,911.2,1253.2z M785.3,1210.9c1,2.9,3.6,3.7,5.2,5.5c11,12.4,14.6,27.7,2.2,41.9
				c-0.6,0.7-1.7,1.4-1.3,2.5c0.7,1.7,2.3,0.9,3.5,0.9c26.3,0.5,52.5-0.9,78.7-3.8c1.8-0.2,3.8-0.7,5.5-0.2c2.9,0.7,4.9-0.7,6.7-2.2
				c8.5-6.8,10.4-20.3,5-29.9c-5.4-9.7-12.9-16.9-22.3-22.6c-10.9-6.6-21.8-9.4-34.4-4.4c-7.6,3-16,4.1-23.8,6.6
				C802.2,1207.7,793.8,1208.9,785.3,1210.9z M719.9,1210.7c-0.3,2,0.9,2.7,1.7,3.7c5.4,7.6,9.8,15.7,7.6,25.4
				c-1.5,6.4-3.7,12.8-7.2,18.4c-2.1,3.5-1,3.8,2.1,3.9c8.5,0.4,17,0.2,25.5,0c1.6,0,2.8-0.6,4-1.6c7.2-6.1,10.9-13.8,13.6-22.9
				c2.4-8.2,1.7-15.1-2.6-22.1c-1.3-2.2-2.8-3.3-5.6-3.2c-5,0.3-10,0-15,0.2C735.9,1212.8,727.9,1211.8,719.9,1210.7z"/>
			<path class="st2" d="M1046.7,1062.3c-2.2-1.7-4-3.1-0.3-5.6c2.1-1.4,3.8-4,4.3-7c0.2-1.3,0.4-4,3.1-2.1
				C1051.8,1052.7,1049.4,1057.6,1046.7,1062.3z"/>
			<path class="st1" d="M359.4,1047.5c1.7-1.1,1.1-2.5,0.6-3.9c-5.2-15.3-7.6-31.3-10.8-47c-6.9-33.7-8.5-67.6-2.7-101.7
				c2.1-12.4,5.1-24.5,9.6-36.4c4.5-11.6,11.1-21.7,17.7-32c2.1-3.2,3.5-3.3,6.5-0.8c10.1,8.5,21.9,13.9,34.4,18.1
				c20.2,6.8,41.3,10.3,61.7,16.3c13.6,4,27.5,7.3,41,11.7c8.5,2.7,17.1,4.9,24.9,9.9c11.7,7.4,18.7,17.8,22.8,30.6
				c5.8,18.4,8.9,37.4,13.2,56.2c2.8,12.3,6.4,24.4,9.5,36.6c2.6,10.5,5.1,21.1,7.5,31.7c2.9,12.8,9.8,23.3,18.2,33
				c9.1,10.4,20.1,18.2,33,23.3c10.1,3.9,28,1.5,33.5-4.9c1.7-2,2.1-4.4,3.6-6.4c0.5-0.6,0.6-1.6,1.7-1.4c1.4,0.3,1.1,1.4,1,2.3
				c-0.5,3.3-0.8,6.6-1.5,9.9c-4,19-7,38.2-9,57.5c-1.7,16.4-2.6,32.8-2.5,49.3c0,3.4-0.8,4.8-4.4,4.5c-9.8-0.8-19.6-1.1-29.3-2.3
				c-5.3-0.7-10.6-1.2-15.9-1.1c-18.3,0.5-36.3-2.9-54.5-3.4c-23.8-0.7-47.7-0.8-71.5,0.2c-12.8,0.6-25.6-0.1-38.4-1.2
				c-2.3-0.2-3.6-1.4-5.1-2.7c-9.2-8.5-16.3-18.7-24-28.3c-15.3-19-30-38.3-42.2-59.5c-5.8-10.1-11.7-20.2-15.6-31.2
				c-0.7-1.9-1.3-4.7-4.5-4.5C365,1062.2,360.5,1055.5,359.4,1047.5z M428.1,872.2c4.5,2.2,8.9,2.3,12.9,3.5
				c15,4.7,28.8,11.8,42.5,19.8c22.3,13,42.5,28.3,59.1,48.2c12.9,15.4,25.1,31,32.2,50.1c0.6,1.6,1.3,4.1,4.3,3.7
				c-2.6-9.8-7.6-18.2-12.4-26.5c-8.2-14.3-19.3-26.7-30.5-38.8c-12.7-13.7-27.7-24.6-43.6-34.5c-13.9-8.6-28.2-16.4-43.6-21.9
				C442.5,873.6,436.1,870.5,428.1,872.2z"/>
			<path class="st1" d="M529.8,336.7l0.1,0.1c0-0.4,0-0.8,0.1-1.2c-0.4,0-0.8,0-1.1,0.1l0.1,0.1c1.8-1.8-0.4-2.5-1-3.6
				c-2.7-4.6-8.6-6.9-9.2-13c-0.1-0.8-1-0.7-1.6-0.6c-9.4,1.9-18.9,3-27.8,6.9c-3.7,1.6-7.4,3.1-11.9,4.9
				c2.1-11.1,7.3-20.3,10.4-30.1c0.8-1,2-1.6,2.2-3c3.2-3.9,8.3-6.3,9.7-11.7l0.1-0.1c6-2.5,9-8.2,13.2-12.5
				c1.5-1.6,2.4-3.7,4.9-1.3c0.4,0.4,1.7,0.8,2-0.4c0.1-0.7-0.1-1.8-0.7-2.2c-8.4-6.9-11.3-16.5-12.2-26.7c-0.4-4.4-0.3-9,3.2-12.8
				c5.3-5.9,5.4-12.9,4.6-20.5c-1.4-12.3,0.3-24.7,1.1-37c0.1-0.9,0.3-2,1.7-2.3c1.4,1.6,0.3,3.4,0.2,5.1c-0.7,13.2-2,26.4,1.6,39.6
				c2.4,8.8,0.7,18.2,0.6,27.3c0,6.1,1.4,11.8,2.9,17.6c0.3,1.3,1.3,1.8,1.8,2.2c3.7-3.6,6.8-8,11-10.4c3.3-1.9,4.1-3.9,4.2-7
				c0.1-3,1.1-4.1,3.8-2c3.1,2.3,3.2,0.2,3.2-2.1c0-4.4,0-8.9,0-13.7c3.1,0.9,3.3,3.9,4.9,5.5c1.6,1.6,2.7,2.3,3-0.7
				c0.2-3.3,2.1-2.4,3.7-1.5c2.7,1.5,4.3,4.2,5.8,6.7c4.4,7.1,8.5,14.4,12.7,21.6c0.6,1,0.9,2.6,2.3,1.6c1-0.7,0.4-2-0.3-3.1
				c-4-6.2-7.5-12.8-11.9-18.8c-3.2-4.3-3.5-8.7-3-13.6c0.4-0.3,0.8-0.6,1.1-0.9c2.3,0.3,2.7,3.3,5.1,3.7c1.1,0.2,2.2,2.2,3.3,0.7
				c0.8-1.1,2.7-2.4,1.2-4.3c-0.9-1.2-0.9-2.5-0.7-3.8c0.4-2-1-5.2,1.5-5.7c2-0.4,4.7,0.9,6.5,2.8c1.9,2,3.2,4.6,6.4,6.1
				c0.3-4.9,2.1-6.4,5.6-2.3c1.2-0.7,1.3-1.7,1.5-2.6c0.6-2.6,1.6-3.5,3.8-1.2c1,1.1,2.4,2.5,3.8,1.9c1.8-0.8,0.9-2.9,1-4.5
				c0.1-2.9-0.1-4.8,3.9-2.6c2.9,1.6,4.9,3.8,7.3,5.8c2.3,1.9,4.6,2.4,6-0.8c0.9-2.1,1.7-2.1,3.2-1.1c2.8,2,3.9,0.3,3.2-2.1
				C622.4,194,619,174,605.3,158c-11.6-13.5-22-27.9-33.7-41.3c-2.2-2.5-5.3-4-6.7-7.1c0.1-0.1,0.3-0.2,0.4-0.4
				c0.9,0.4,1.9,0.6,2.6,1.2c18.9,16.4,37.1,33.4,49.3,55.7c6.4,11.7,13.2,23.2,16.6,36.3c0.4,1.6,1,3.5,2.6,2.9
				c1.9-0.8-0.1-2.4-0.1-3.6c0-2.8-1.4-5-2.3-7.4c-1.5-4.2-0.3-6,4.1-6.3c8.5-0.5,16.9-1.5,25.4-1.1c12.6,0.6,25.2,1.4,37.8,2.9
				c6.3,0.7,12.9-1,19.3-1.6c3.4-0.3,8.1-1.8,9.6,1.3c1.2,2.5-2.8,5.5-4.8,8c-1.6,1.9-3.1,3.9-4.6,5.9c-0.7,1-1,2.3,0.1,3.1
				c1.3,1,2.1-0.3,2.8-1.2c13.5-19,27.2-37.8,40.2-57.1c5.3-7.9,9.9-16.6,17.1-22.9c9.6-8.3,19.4-16.7,31.7-21.1
				c3.7-1.3,5.6-0.7,7.8,3.2c13.3,23.8,21.6,49.5,28.9,75.5c2.3,8.2,2.3,17.5,1.2,26.3c-0.5,3.9-0.2,7.5,1.1,11.2
				c5.8,16.5,5.5,33.1,0.2,49.7c-1.3,4.1-3.5,7.6,0.9,12.1c3.8,3.9,5.3,10.1,8,15.2c5.1,9.8,12.9,17.9,17.2,28.2
				c5.4,12.9,8.5,26.4,11.3,40.1c3.2,15.3,3.1,30.8,2.5,46.2c-0.8,19-4.1,37.5-10.8,55.5c-2.5,6.6-5.9,12.7-8.2,19.4
				c-1.9,5.7-6.9,9.6-11.2,13.6c-7.1,6.7-15,12.3-23.3,17.5c-3.5,2.2-5.1,1.4-6-2.2c-7-26.8-20-49.9-41.1-68.2
				c-1-0.9-2.5-1.6-2.6-3.7c8.4,0.3,16.7,0.7,24.9-1.9c4.8-1.5,9.9-2.4,13.9-5.5c5.3-4.2,11.1-7.8,14.9-13.7c1.9-3,2.5-0.7,3.5,0.9
				c8.4,13.3,20.5,17,35.1,11.2c3.5-1.4,5.4-4.2,7.4-7c0.8-1.1,1-2.5-0.1-3.6c-1-1-1.9-0.5-3,0.1c-5.8,3-12,2.3-18.1,1.5
				c-4.9-0.7-10.6-8.5-11.2-14.9c-0.2-2.6-0.1-5.3-0.1-8c0-1.2,0.1-2.4-0.1-3.5c-0.5-3.1-2.3-6-4.9-7c-2.6-1-4.3,1.9-5.4,4
				c-4.3,8.3-10.3,14.8-18.4,19.4c-20.4,11.5-39.6,10.5-58.6-4c-11.6-8.8-23.3-17.8-36.5-24.4c-2.1-1-4.4-3.4-6.7-0.9
				c-2.2,2.4,0.1,4.9,1.5,6.5c9.3,10.4,16.5,22.7,27.6,31.6c1,0.8,2.2,1.4,2.5,3c-3.5,0.6-5.8-2.3-8.8-2.8c-1.3-0.2-3.1-2-3.9-0.1
				c-0.6,1.4,1.4,2.1,2.8,2.7c9.2,4,18.3,8.2,27.4,12.2c13.2,5.9,14,13.2,9.7,22.6c-1.6,3.5-3.5,3.6-5.8,0.6
				c-6.8-8.7-15-15.8-24.8-21c-1.7-0.9-4.8-1.2-4.2-4.5c0.1-0.8-0.7-1.5-1.1-1.2c-4,3-7.5-1.4-11.3-0.6c-0.8,0.2-2.1-1.1-2.4,0.4
				c-0.3,1.3,0.9,1.5,1.9,1.7c17.2,4.5,30.6,14.6,41.5,28.3c1.5,1.9,1.4,3.3-0.1,5.2c-6.2,7.9-8.2,8.1-14.4,0.3
				c-5.3-6.7-11.6-12-18.1-17.3c-2.5-2.1-5.9-1.9-8.1-4.4c-0.8,2.4,0.7,3.2,2.4,4.1c10.6,5.6,18.3,14.3,25.8,23.3
				c1.4,1.7,1.6,3.2-1.2,4.5c-25.5,11.8-52.3,6.2-71.1-14.9c-6.6-7.4-8.8-16.6-10.5-25.8c-0.7-3.9,3.8-6.8,6.1-9.7
				c4.5-5.7,8.2-12,14.9-16c3.6-2.1,5.6-6.1,5.3-11.2c-0.5-10.5,0.5-20.9,3.8-31.7c6.3,4.3,13.2,6.8,20.4,8.4
				c11.2,2.4,22.3,5.5,33.9,2c5.2-1.6,10.1-4.2,14.2-7.6c8.7-7.2,17.5-14.6,22.4-25.2c2-4.4,5.7-5.6,9.9-6.1
				c18.4-2.2,36.7-3.7,55.3-3.2c1,0,2,0,3-0.1c0.9-0.1,1.6-0.7,1.7-1.5c0.3-1.5-1.1-1.4-1.9-1.5c-19-3.5-37.6-9.4-56.8-12.1
				c-4.3-0.6-6.9-3.9-9.4-6.7c-7.6-8.4-17.3-11.8-28.1-14.1c-11.9-2.6-22.8-0.6-33.2,4.7c-10.4,5.3-17.3,14.1-22.8,24
				c-7.6,13.7-14.7,27.6-19.7,42.5c-1.7,5.2-3.2,10.5-4.6,15.8c-1.1,3.9-2.2,6.3-7.5,5c-6.6-1.7-13.6-0.9-20.2,1
				c-4.6,1.4-6.6-0.2-8.2-4.7c-3.6-10-6.3-20.3-10-30.4c-3.9-10.7-10.2-18.4-18.8-25.1c-3.3-2.6-3.9-7.6-8.1-9.6
				c-0.8-1.6,3.7,4.3,4.5,7.4c-5.3,0.1-9.1-2.9-13.3-4.4c-10.9-3.8-21.9-6.5-33.5-6.5c-7.3,0-14-2.5-21-4c-3.8-0.8-7.6-2.3-11.4,0.8
				c-1.3,1-3.9,2.1-5-1.5c-0.7-2.4-3.4-2.6-4.3-0.5c-11.8-0.6-12.1-1.1-13.5-1c-1.6,0.1-3.6-0.5-4.7,0.9c-0.3,0.3-0.4,0.6-0.4,0.9
				c0,0-0.1,1.2,1.7,2.4c1.4,1,18.7-16.4,75.6-80.6 M810.6,239c0,0.9,0.2,1.6,0.1,2.2c-1.1,5.2,1.5,4.1,4.6,2.9
				c1.4-0.6,2.3-2.5,4.3-1.8c0.9,2.7-1.7,4.9-1,7.3c1.3,4.3,3.8-0.3,6,0.4c-1.7,3.8-1.6,6.8,3.6,6.3c3.4-0.3,4.2,0.5,2.5,3.8
				c-1.3,2.7-1.2,5.7,2.4,6.9c3.9,1.3,5,4,4.7,7.7c-0.1,0.9-0.4,2.2,0.8,2.5c1.4,0.3,1.8-0.8,2.3-2c4.3-12.2,7.4-24.8,5.6-37.6
				c-2-14.3-1.8-28.5-2.6-42.8c-0.7-12.3-3.3-24.3-7.7-35.8c-3.4-8.7-6.7-17.5-10.7-26c-3.2-6.9-3.9-14.7-8.5-21
				c-1.9-2.6-3.6-3.6-6.6-2.5c-9.1,3.3-17.8,7.5-24.3,14.6c-13.8,14.9-24.7,32.1-34.9,49.6c-5.8,9.9-11.3,19.9-18.1,29.2
				c-1.2,1.6-2.4,3.2-0.1,5c2.1,1.7,3.8,1.5,5.7-0.2c2.5-2.3,5.3-4.5,7.7-6.9c0.8-0.8,1.6-1.4,2.5-1c1.1,0.5,0.6,1.7,0.6,2.6
				c0.1,2.6,0,5.3,0.1,7.9c0.1,1.4,0.6,3.8,2.4,1.9c4.2-4.4,5.1-2.5,5.6,2.2c0.4,3.6,1.7,4,4.7,1.5c3.8-3.1,6.8-7.1,10.8-10.8
				c1,5.9-0.5,10.9-0.9,16c-0.1,1.3-0.8,2.9,0.7,3.6c2,1,2.5-1.1,3.2-2.2c0.8-1.1,2.2-2.8,2.5-0.6c1.1,7.3,3.9,2.1,5.9,0.9
				c2,2.1,2,4.4,2,6.8c0,1.5,0.7,2.7,1.9,3.3c1.3,0.6,2-1,2.7-1.7c3.3-3.4,7-6.1,11.9-7.2c0.5,3.4-0.1,6.3-0.6,9.3
				c-0.4,2.7-1.7,6.4,0.2,8c2.3,2,4.5-1.8,7-2.4C809.8,239,809.9,239,810.6,239z M686.1,222.4c0.8,11.3,0.8,22.7,2.7,33.8
				c2.7,15.8,6.1,31.5,11.2,46.7c3,9.1,6.8,17.9,10,27c0.5,1.3,1.2,2.6,2.7,2.6c1.5-0.1,1.9-1.3,2.2-2.8c3.9-18.5,3.5-36.9-0.5-55.4
				c-3.4-15.7-5.8-31.7-8.7-47.5c-1.6-8.6-2.4-17.4-5.5-25.7c-1.3-3.6-3.6-6.5-7.4-6.2c-3.4,0.3-4.5,3.9-4.9,7.1
				C687.1,208.8,685.9,215.6,686.1,222.4z M664,213.2c0-3.8,0.1-7.7-0.1-11.5c-0.1-2.6,1-6-2.9-7.1c-2.7-0.8-8.5,2.3-9.6,4.9
				c-5.7,12.5-10.3,25.2-12.3,39.1c-2.3,16.1-5.2,32.2-5.5,48.5c-0.3,12.6,0.2,25.3-0.8,37.9c-0.2,2.1,0,4.9,2.1,5.6
				c1.9,0.6,4.1-1.3,4.8-3.1c3.2-9,6.3-18.1,9.2-27.3c4.9-15.9,7.2-32.3,10.5-48.6C661.9,238.9,664.3,226.2,664,213.2z M837.5,467.8
				c6.3-0.2,12.6-0.8,18.3-3.9c6.7-3.6,11.3-8.9,12.6-16.6c0.2-1.1,0.2-2.6-1-3.1c-0.9-0.4-1.9,0.4-2.4,1.3c-3.4,7.3-10.2,9-17,10.3
				c-12.2,2.3-24.5,4.4-33.6-7.5c-0.8-1-1.7-1.9-2.9-1.1c-1.3,0.8-2.4,2.4-1.8,3.7c1.5,3.5,2.5,7.4,6,9.9
				C822.3,465.5,829.4,468,837.5,467.8z M668.9,324.3c0.2-14.7-5.4-26.2-8.4-38.3c-0.4-1.7-1.9-2.6-3.9-2.3c-2.3,0.3-1.7,2-1.7,3.4
				c0,3.2,0,6.3-0.2,9.5c-0.7,12.5,1.7,24.8,2.6,37.1c0.2,3.1,1.8,4.9,4.5,5.6c2.9,0.8,3.4-2.1,4.8-3.5
				C670.1,331.9,668.2,326.9,668.9,324.3z M692.1,295.5c0-2-0.1-4,0-6c0.1-1.5,0.3-3.4-1.5-3.7c-1.6-0.3-2.3,1.2-2.9,2.7
				c-4.3,10.7-6.5,21.8-7.7,33.2c-0.4,4-0.4,8-0.5,11.9c-0.1,2.9,1.5,4.6,4,5.6c3,1.2,4.6-1.1,5.4-3c1.7-4.1,3.8-8.1,3.8-12.9
				C692.8,314,690.9,304.8,692.1,295.5z M669.9,255.6c0.2,0,0.4,0,0.6,0c0,7.3-0.1,14.6,0,22c0,2.5,0.7,4.9,1.8,7.2
				c0.7,1.5,1.5,2.6,3.2,2.4s2.8-1.1,3-2.8c0.2-1.3,0.2-2.7,0.4-4c1.5-16.6-1.4-32.9-3.2-49.2c-0.2-1.7-0.8-3.7-2.5-3.9
				c-2.1-0.3-2.3,2.1-2.8,3.5c-0.5,1.3-0.5,2.9-0.5,4.4C669.9,241.9,669.9,248.8,669.9,255.6z M804.5,244.9c0-1.7-1.4-1.6-4.9,0
				c-20.3,9.3-35.2,24.9-49.1,41.7c-0.9,1.1-2.7,2.3-0.7,3.6c1.5,1,2.4-0.8,3.3-1.9c13.3-17.1,27.7-33,48.8-40.8
				C802.9,247,804.4,246.3,804.5,244.9z M792.6,265.2c-2.2,0.2-4.1,0.7-6,1.7c-7.2,3.5-13.6,8-19.7,13.1c-1.1,0.9-3.6,2-1.9,3.6
				c1.5,1.4,2.6-0.8,3.9-1.8c6.1-4.9,11.8-10.4,19.9-12.3C790.4,269.1,792.8,268.4,792.6,265.2z M561.1,254.4
				c-0.7,0.5-1.2,0.8-1.4,1.2c-0.6,0.8,0.2,1,0.7,1.4c5,4.2,8.7,9.7,13.1,14.5c0.7,0.8,1.3,2.5,2.6,1.4c1.4-1.1-0.3-2-0.9-2.8
				c-3.8-4.9-8.9-8.8-12.3-14.1C562.4,255.3,561.7,254.9,561.1,254.4z M774.7,284.4c0.9,0.7,1.4,1.3,1.7,1.2
				c5.1-1.3,9.2-4.9,14.3-6.1c0.7-0.2,1.3-1,0.6-2c-0.8-1.1-1.6-0.8-2.6-0.3C784.2,279.6,779.6,281.9,774.7,284.4z M551.5,267.4
				c6.1,4.3,10.5,10.8,17.6,14.5C567.4,277.2,554.3,266.7,551.5,267.4z M591.6,280.3c-0.2,5.2,2.6,8.5,3.3,12.3
				c0.2,0.9,1.1,1.2,2,0.9c0.7-0.2,1.2-0.9,0.9-1.5C596.2,288.2,595.8,283.8,591.6,280.3z M584.5,288.5c3.3,1,3.1,4.3,6.1,4.2
				c0.9,0,1.2-0.8,0.8-1.4C590.2,289.4,589.5,286.6,584.5,288.5z M586.4,270.2c0.1,4.7,0.1,4.7,4.3,5.9
				C589.4,273.9,588.7,271.6,586.4,270.2z"/>
			<path class="st1" d="M498.3,671.5c-4.9,0.3-8.8-2.7-13.1-4.2c-12.3-4.6-23.9-2.3-35.6,1.5c-12.4,3.9-22.3,12.1-32.2,20
				c-1.3,1-3.7,1.9-2.9,4.1c0.8,2.4,3.4,1.6,5.3,1.8c10.7,1.1,21.2-1.2,31.7-2.8c13.8-2.1,27.8-3,41.8-3.3c7.8-0.2,15.3-3,23.2-2.9
				c3.1,0,4.8,1.2,6.4,3.6c6.5,9.6,10.4,20.6,15,31.2c1,2.4,3.3,4.2,3.5,7.5c-4.4-0.2-8.2-2.6-12.1-4c-6.3-2.1-12.7-4-19.3-4.5
				c-16.1-1.2-31.9-5-48.2-3.8c-7.5,0.6-15.1,1.4-21.7,5c-4.3,2.3-9.4,3.9-12.3,9.1c-0.8,1.6-3.6,3.7-5.5,5.6
				c-8.1,7.6-11.3,17.6-13.5,28c-0.2,1.1-0.5,2.6,0.7,3.1c1.4,0.6,1.8-1,2.6-1.8c3.4-3.8,7-7.5,10-11.7
				c9.2-12.8,22.2-18.6,37.4-20.7c16.2-2.2,31.8-1.4,47.7,3.7c13.1,4.3,26.9,7.4,41,7.9c1.5,0,3.3,0.1,4.7,1.6c-1.6,2.3-3.9,2-6.2,2
				c-10.1,0.1-20.3-0.3-29.8,4.4c-6.7,3.3-13.1,7-18.3,12.6c-0.8,0.8-2.1,1.7-1.1,2.9c0.9,1.2,2,0.3,3.1-0.3c1.2-0.8,2.7-1.2,4-2
				c16.8-10.1,35.4-9.8,54-8.8c2.9,0.2,2.9,0.5,4.9,4.7c-9,0.4-17.5,2.2-25.5,5.9c-4.1,1.9-8.4,3.1-10.9,7.7
				c-2.2,4-7.8,4.7-10.2,9.4c-9.4,18.4-11.1,37.7-6.7,57.6c0.9,4.1,0.7,8.7,4.5,11.8c1.3-1.5,1.3-3.2,1.2-4.8
				c-1-8.6,1.1-16.7,4.1-24.7c4.4-11.7,11.1-22.2,19-31.7c4.3-5.2,10.2-8.2,17-9.6c9.1-1.9,18.2-1.5,27.4-0.8
				c-3.3,3-7.6,3.1-11.2,4.7c-2.1,1-6.5,1.3-5.8,3.5c1,3.2,4.8,0.6,7,0.2c5.7-1,11.5-0.9,17.2-1.6c0.9-0.1,1.7,0,2.3,0.5
				c1,0.7,2.7,1.3,2.2,2.8c-0.4,1.3-2,0.9-3.1,0.8c-7.4-0.7-14.5,1-21.6,3.1c-7.5,2.2-12.8,7.3-17.9,12.8c-0.7,0.8-1.5,1.8-1,2.6
				c0.7,1.2,2.3,0.7,3.2,0.2c10.2-5.6,21.7-5.8,32.7-8c3-0.6,6-0.1,8.9,0.4c6,1,12,2.1,18,3.3c1.4,0.3,2.8,1.1,4,1.9
				c0.6,0.4,1,1.4,1,2.1c0,1.2-1.2,0.8-1.9,1c-6.2,1.8-12.7,2.4-18.9,4.7c-9.9,3.6-17,11.2-24.9,17.6c-4.9,4-8.1,9-10.5,14.7
				c-0.5,1.1-1.7,2.3,0.1,3.4c1.8,1.2,2.5-0.5,3.2-1.3c4.1-4.9,7.7-10.3,13.4-13.6c10.2-5.9,21-9.9,32.7-10.8
				c7.5-0.6,15-2.1,22.8-0.4c3.5,0.8,4.8,2.9,6.7,5c1.1,1.2,2.1,2.6,3.1,3.9c1,1.3,2.8,2.5,2,4.2c-0.7,1.5-2.7,0.6-4.1,0.8
				c-11.5,1.6-23.1,1.9-33.8,7.5c-5.6,2.9-10.7,6.3-15.1,10.8c-0.9,0.9-2.5,1.4-1.7,3.1c0.8,1.6,2.3,1.1,3.5,1.1
				c10-0.6,20-0.8,29.9-1.9c9.3-1,18.6-0.4,27.9-2.2c2.5-0.5,4.3,0.3,5.3,3.2c2.1,6.2,4.3,12.4,5.9,18.9c0.6,2.4,0,3.2-2.4,3.5
				c-7.2,0.9-14.4,1.9-21,5.2c-3.3,1.7-6,4-8.7,6.4c-1.6,1.5-2.3,3-1.2,4.8c1.1,1.7,2.9,1.2,4.5,0.6c8.8-3.2,18.4-2.7,27.3-5.3
				c3.3-1,5.1,0.1,5.7,3.9c1.4,8.5,3.3,16.9,5.1,25.4c0.7,3.4-0.3,4.7-3.7,4.2c-14.5-2.3-25.9,4.1-36.5,13.1c-1.4,1.2-3,2-4.4,3.1
				c-1,0.7-2.7,1-2.2,2.8c0.4,1.7,2,1.4,3.3,1.7c14.3,2.8,28.7,3.6,43.2,3c3.7-0.2,5.2,1,5.1,4.6c0,3.2,1,6.2,1.8,9.2
				c0.9,3.1,0.6,4.7-3.5,3.4c-15.6-4.9-30.1-2-43.7,6.8c-1.5,1-3.7,1.9-3.2,3.8s2.8,1.3,4.4,1.2c14-0.4,28,0.1,42-0.7
				c6.9-0.4,7.3,0,8.1,6.8c1.7,15,3.6,30.1,3.1,45.3c-0.2,8.3,1.8,16.5,0,24.8c-1.9,8.6-3.1,17.6-8.2,25c-5.9,8.6-15.2,9.6-24.5,8.4
				c-19.8-2.6-33.6-14.6-45.1-29.9c-5.1-6.8-9.8-13.9-11.6-22.2c-5.5-24.2-12.6-47.9-18.2-72c-1.7-7.2-3.9-14.5-4.4-21.9
				c-0.4-6.3,1.7-12.6,4.4-18.1c6.3-12.6,13.5-24.7,25.7-32.8c1.6-1.1,3.2-2.3,4.9-3.3c1.2-0.8,2.4-1.6,1.6-3.2
				c-0.9-1.7-2.5-1.3-3.9-0.6c-6.1,2.7-11.7,6.2-17.3,9.6c-9.3,5.5-16.6,12.8-21.1,24.3c-2.2-8.1-4.9-14.4-7.7-20.8
				c-2.7-6.1-6.7-11.1-10.8-15.9c-4.8-5.6-7.2-11.6-7-18.9c0.4-15.5,5.6-29,16.3-40.3c0.8-0.8,1.5-1.8,2.1-2.8
				c0.6-1.1,0.4-2.2-0.6-3.2c-0.9-0.9-1.8-0.5-2.7,0c-13.9,6.7-25.1,22.3-22.2,38.5c1.1,6,1.2,12.1,4,18.9c-9.5-3.3-17.9-6.4-26.4-9
				c-13.1-3.9-26.3-7.2-39.5-10.9c-13.4-3.8-26.8-7.5-40.4-10.4c-5.8-1.2-11.9-2-17.5-3.9c-6.2-2.1-12-5.4-18-8.1
				c-19.4-8.9-32.4-23.9-41.7-42.7c-1-2-2-4.6-5.1-2.5c-0.3-0.7-0.6-1.4-0.9-2.1l0.1,0.2c-0.3-0.8-0.6-1.5-1-2.3l0.1,0.1
				c-0.2-0.4-0.3-0.7-0.5-1.1c-0.2-0.4-0.3-0.8-0.5-1.3c-0.2-0.6-0.4-1.1-0.6-1.7c0-0.9,0.3-2-0.8-2.6c0-1-0.3-1.8-1-2.5
				c0.2-7.3-1.4-14.4-3.9-21.2c-5.4-14.8-4.4-29.9-0.3-44.5c4.6-16.3,13.6-30.6,24.4-43.7c4.7-5.6,10.4-10.5,13.8-17.1l0,0
				c2.7-1.5,5.5-2.9,6-6.4c0.6-1.4,2.8-1,3.1-2.7c4.1-2.4,8.1-4.9,9.4-9.8c4.2-3,7.7-6.6,10.4-11.1c3.8-0.9,5.3-4.4,7.2-7
				c6.4-8.8,13-17.4,17.9-27.3c2.4-4.9,6-9.1,9.5-14.3c2.3,8.8,3,17,5.1,24.9c5.1,18.6,13,35.6,25.7,50.3c7.3,8.4,15,16.3,23.2,23.8
				C499.1,670.6,498.7,671.1,498.3,671.5z M487.7,749.3c-7.4,2.6-15.6,4.1-21.7,10c-14.1,13.6-18.7,30.7-17.7,49.7
				c0.1,2.8,2,5.6,3.4,8.2c0.5,1,3,2.3,2.7,0.3c-0.8-5.7,2.8-10.1,3.5-15.4c1.9-14.2,9.1-26.2,17.7-37.4c3.2-4.1,7.1-7.6,11.8-10
				c1.5-0.8,2.6-2.1,2.3-4.1C489.5,749.6,488.8,749.2,487.7,749.3z"/>
			<path class="st2" d="M381.9,649.8c-3.5,6.6-9.2,11.5-13.8,17.1c-10.9,13.1-19.8,27.4-24.4,43.7c-4.1,14.5-5.1,29.6,0.3,44.5
				c2.5,6.8,4,13.9,3.9,21.2c-4.5-14.8-10.5-29.2-9.5-45.3c1.1-19,7.8-35.9,18.1-51.6c6.5-10,13.9-19.2,22.3-27.7
				C379.7,650.7,380.4,649.6,381.9,649.8z"/>
			<path class="st2" d="M499.7,285.7c-1.4,5.5-6.5,7.8-9.7,11.7C492.3,292.7,494.7,288.1,499.7,285.7z"/>
			<path class="st2" d="M400.5,630.9c-1.4,5-5.4,7.5-9.4,9.8C393.7,637,397,633.8,400.5,630.9z"/>
			<path class="st2" d="M387.9,643.5c-0.5,3.5-3.4,4.9-6,6.4C382.3,646.3,385.6,645.3,387.9,643.5z"/>
			<path class="st2" d="M348.9,778.7c1.1,0.6,0.8,1.6,0.8,2.6C349.5,780.4,349.2,779.6,348.9,778.7z"/>
			<path class="st2" d="M350.3,782.9c0.2,0.4,0.3,0.8,0.5,1.3C350.7,783.8,350.5,783.4,350.3,782.9z"/>
			<path class="st2" d="M352.1,787.5l-0.1-0.2L352.1,787.5z"/>
			<path class="st2" d="M351.3,785.3l-0.1-0.1C351.1,785.2,351.3,785.3,351.3,785.3z"/>
			<path class="st1" d="M588.2,532.3c6.9,1.6,13,3,19.2,3.8c16.4,2.1,32.7,2.5,49.1,0.1c9.8-1.4,18.2-6.6,27.7-8.7
				c1.9-0.4,3.4-0.3,5.2,0.5c26.2,12.3,53.4,19.7,82.7,16.2c4.3-0.5,4.3,0.9,2.9,4.3c-6.8,16.7-14.1,33.2-20,50.2
				c-5.3,15.3-12.8,29.4-22.1,42.5c-9.8,13.6-23.1,22.9-38.5,29c-7.8,3.1-15.2,1.8-21.5-4.9c-13-14-25-28.7-36-44.3
				c-16.4-23.2-27.2-49.4-41.8-73.5C592.2,543,589.5,538.5,588.2,532.3z"/>
			<path class="st1" d="M529.8,336.7c3.4,2.9,7.8,1.1,11.6,2.2c2.9,0.8,4.8,1.5,6.3,4.5c9.3,18.4,23.7,31.2,43.5,37.5
				c10.4,3.4,20.5,2.6,30.4-2.3c6.2-3.1,12.3-6.3,17.9-10.4c2-1.5,3.1-1.8,3.9,1.4c3,12.4,6.1,24.8,7.2,37.6
				c0.3,3.3,1.5,5.6,4.9,6.4c3.2,0.8,5.1,2.8,6.9,5.7c4.6,7.2,9.8,14,15,20.7c1.2,1.6,1.3,3.1,0.9,4.6c-4.1,15.2-15,32.7-36,34.4
				c-11.9,1-23.8,1.4-35.4-3.1c-4.6-1.8-9.1-3.9-13.2-6.7c-2.5-1.7-3.4-3.3,0-5.5c9-5.7,18.8-9.5,28.8-12.8c1.7-0.5,5.6,0,4.5-2.7
				c-1.5-3.9-2.9,0.8-4.4,0.9c-5.7,0.4-10.4,3.5-15.6,5.3c-5.5,2-10.6,4.6-15.3,8c-2.5,1.9-4.1,1.4-5.9-0.7
				c-4.8-5.7-6.5-12.6-7.8-19.8c-0.6-3.2,1.8-3.9,4-4.7c10.8-3.8,22-6.2,33.5-6.7c2.3-0.1,4.9,0.4,8.1-2.2c-7.1-0.6-13,0.4-18.4,2
				c-5.5,1.5-10.9,0.4-16.3,2c23.2-12.9,39.5-31.8,51.5-54.8c-7,2.4-13,6.2-18.7,10.6c-10.6,8.1-21.1,16.3-33.3,22.1
				c-14.9,7.1-29.5,8.2-44.5,1.2c-4.1-1.9-9-2.1-12.4-5.8c-6.2-7-9.7-15.2-12-24c-0.5-1.9-0.8-3.8-1.9-5.6c-1.5-2.5-4.2-4.7-6.2-3.5
				c-2.5,1.4-5.6,3.1-5.4,7.8c0.4,13.2-4.1,24.9-13.4,34.5c-3,3.1-6.9,3.6-11.1,1.9c-3.2-1.3-5.8-3.7-9.4-4.3
				c-2.1-0.4-1.9-2.9-2.1-4.6c-2-14-0.6-27.9,0.6-41.8c0.8-9.3,2.6-18.4,3.9-27.7c0.5-3.5,0.7-5.5,6-4.5c9.6,1.9,19.5,1.8,29.3,2.6
				c2.2,0.2,2.7-0.8,1.9-2.7c-0.4-0.9-0.7-1.9-1.1-2.8c-0.5-1.2,10.5,1.4,13.8,3.9c1.4,1.1,4.2,1,4.2,1c-0.4,1.2,0,1.5,1.1,1.1
				L529.8,336.7z M586,449.2c0.9-0.2,2-0.2,2.8-0.6c7.9-4.2,16.8-5.5,25.3-8.1c2.6-0.8,5.2-1.1,7.8-0.8c3.1,0.4,3.6-2.9,5.8-3.7
				c0,0-0.1-1.5-0.5-1.7c-2.6-1.2-1.6,2.4-3.2,2.6c-0.5,0.1-1,0-1.5,0.1c-2.9,0.5-5.9,0.9-8.8,1.5C604,440.6,594.5,443.4,586,449.2z
				"/>
			<path class="st1" d="M540.9,435.8c-9.5,3.1-19.3,4.7-29.2,6.1c-5.7,0.8-10.9-0.4-15.7-3.5c-4.2-2.7-8.6-4.3-13.6-1.6
				c3.1,7.8,10.2,10.9,17.4,13.8c12.3,4.9,24.4,4.6,36.3-1.3c4.4-2.2,6.8-6,8.9-10.2c0.5-0.9,0.1-2.9,1.9-1.8c7,4,14.6,1.6,22.3,2.3
				c-1.7,3.8-7.6,2.8-7.8,7.6c3.5-1.8,7.1-3.8,10.7-5.6c1.7-0.8,2.9-0.8,3.6,1.6c2.2,7.1,2,8.5-3.9,12.7
				c-15.1,10.7-26.5,24.6-35.4,40.7c-1.2,2.2-1.8,4.6-2.7,7.3c3.7-1.9,4.6-5.4,6.1-8.3c7.8-15.5,19.5-27.4,33-37.9
				c4.1-3.2,6.2-0.6,8.7,1.6c1.1,0.9,1.6,2.5,2.6,3.6c2.2,2.3,1.9,3.7-0.6,6c-13.5,12-21.7,27.4-28.2,44c-0.6,1.4-1.5,3.2,0.7,3.6
				c2,0.4,1.3-1.7,1.6-2.9c5.6-16.1,14-30.6,26.4-42.4c3.5-3.4,7.9-2,11.3,3.3c4.4,6.7,8,13.9,12.8,20.4c5,6.6,12.1,10.7,18.5,15.6
				c12.1,9.3,26.3,13.7,41,16.6c1.1,0.2,2.6,0.1,2.7,1.7c0.1,1.8-1.6,1.3-2.5,1.6c-14.3,5.9-29.3,4.9-44.2,4.6
				c-19.4-0.4-37.9-5.4-56.4-10.6c-19.4-5.5-37.5-13.8-54.5-24.5c-7.4-4.6-14.9-9.7-19.8-16.8c-5.1-7.3-9.5-15.5-11.9-24.4
				c-3-11.4-5.7-22.8-8.4-34.3c-0.4-1.7-0.5-3.5-0.8-6.2c2.8,2.3,4.7,4.3,7,5.8c9.6,6.1,17.2,3.5,26.1-3.9c2.7-2.2,4.6-5.1,6.3-8.2
				c1.6-3,3.2-3.7,5.8-0.4c4.6,5.9,8.2,12.8,14.7,17.2c2.7,1.9,5.5,3.6,8.5,5c1.1,0.5,1.7,1,0.6,2.1L540.9,435.8z M516.6,498.2
				c12-18.3,26.4-34.4,43.3-50.3C548.6,453.3,520.4,485.8,516.6,498.2z"/>
			<path class="st1" d="M784,511.6c-3.2-7.4-4.2-15.8-10-22.3c-1.1-1.2-3.8-5.7-2-8.3c2.1-3.2,5.4-5.8,8.5-8.1
				c1.7-1.3,2.4,0.9,3.2,2.1c7.7,13.4,13.2,27.7,16.5,42.7c0.7,3,2.6,5.2,4,7.8c-1.2-4.9-1.8-9.9-3.2-14.7
				c-4.1-13.4-9-26.6-16.3-38.7c-1.3-2.1-1-3.8,0.5-5.9c3.2-4.5,5.2-9.6,3.7-16.5c5.8,3.4,9.4,7.8,13.1,11.9
				c13.2,14.6,21,32.1,27.1,50.5c0.5,1.6,0.8,3.9,1.9,4.4c6.2,2.9,0.9,4.9-0.8,5.7c-10.9,5.3-21.5,11.4-33.5,14.3
				c-2.4,0.6-3.2,0.3-4-2c-1.7-5.2-3.7-10.2-5.5-15.4c-0.4-1.2-0.5-3.4-2.3-2.6c-2.1,0.9-0.3,2.9,0.2,3.8c1.8,3.4,2.6,7.1,3.9,10.6
				c2.4,6.6,1.2,9.1-5.7,9.6c-11.2,0.9-22.3,2.3-33.7,1.8c-13.4-0.6-25.7-4.6-38.2-8.7c-4.7-1.5-9.5-3-14-4.9
				c-0.7-0.3-1.2-1-2.4-2.1c7.2-1.6,13.7-3.4,20.4-4.5c12.9-2.2,22.7-10,32.8-17.3c6.1-4.4,11.6-9.7,16.1-16
				c4.1-5.8,6.9-5.3,9.6,1.3c2.6,6.2,5,12.5,7.1,18.9C781.5,511,782.6,511.2,784,511.6c0.1,0.1,0.3,0.3,0.4,0.5
				c-0.2,0.1-0.4,0.2-0.5,0.3C783.9,512.1,784,511.9,784,511.6z"/>
			<path class="st1" d="M542.2,117.8c0.4,3.4-1,6.7-1.9,9.9c-2.6,9.2-4.2,18.7-6.6,28c-0.8,3,0.9,5.2,2.2,7.7
				c3.3,6.5,0.2,12.6-1.6,18.6c-3.9,13.3-1,25.2,6.5,36.3c3.1,4.7,4.1,10.6,2.8,20.1c-0.7,0.4-1.2,0-1.7-0.5
				c-2.5-2.4-4.5-2.4-3.9,1.5c1.4,9.2-7.5,11.6-11.1,17.4c-0.9,1.4-1.9,0.4-2.3-1.1c-0.8-3.2-1.7-6.4-1.7-9.8
				c-0.3-13.8-0.3-27.4-2.5-41.2c-2.8-17.6,0.1-35.4,4.4-52.8c3-12.1,8.5-22.8,15.5-32.9C540.7,118.6,540.8,117.5,542.2,117.8z"/>
			<path class="st1" d="M719.9,341.9c8.8-22.7,22.8-38.9,45.4-41.2c17.7-1.8,34.4,2.8,47.5,21.4c-6.6,4.7-23.4,3-34.4,2.2
				c-20.4-1.7-39.4,0.1-54.9,16.7c-0.8,0.9-2.7,3.8-3.9,3.9C719.3,344.5,720.2,342.1,719.9,341.9z"/>
			<path class="st1" d="M681.4,398.8c7.2,2,15.8-0.4,22.1,6.2c1,1,2.8,1.5,1.7,3.4c-0.9,1.7-2.5,1.4-4,0.9c-2.9-1-5.9-0.7-8.9-0.6
				c-1.9,0.1-4.1,0.3-4.6,2.9c-0.4,2.3,0.6,3.9,2.7,4.7c4.4,1.7,3.7,3.6,0.8,6.5c-2.8,2.7-5,6-7,9.5c-3.1,5.4-5.6,5.1-8.7-0.1
				c-2.6-4.4-5.4-8.7-9.5-12c-2-1.6-2.2-2.6,0.4-3.7c3.3-1.4,6.6-2.9,4.6-7.5c-1.3-3-6.1-3.8-10.1-1.7c-2.3,1.2-5,4.4-6.7,1.5
				c-1.4-2.3,2.5-4.2,4.6-5.9c1.9-1.6,3.9-2.1,6.3-2.3C670.4,400.3,675.7,399.5,681.4,398.8z"/>
			<path class="st1" d="M622.5,483c4.4-1.4,8.9-1.5,13.3-1.2c18.3,1.1,30.9-7.6,39.8-22.8c1.3-2.2,3.4-4.2,3.3-7.1
				c0-0.9,0.6-1.5,1.6-1.6c1.2-0.2,1.2,0.8,1.4,1.6c4.8,17.6,17.1,28,33.2,34.7c2,0.8,4.6,0.2,7,2.6c-6.5,0.5-12.4-0.4-17.7-2.3
				c-8.5-3.1-17-6.6-24.1-12.4c-2.1-1.7-3.7-1.7-6.1,0C658.3,485.5,640.7,486,622.5,483z"/>
			<path class="st1" d="M564.8,109.8c-3,0.3-3.9-2.7-5.9-3.9c-3.7-2.3-7.3-3.7-11.6-1.8c-0.2-0.1-0.3-0.3-0.5-0.4
				c2.7-7.4,4.7-8,10.1-3c3,2.7,6.4,5.1,8.3,8.8C565.1,109.6,564.9,109.7,564.8,109.8z"/>
			<path class="st1" d="M547.3,104.1c-5.5,8.3-11,16.6-16.5,24.9c-0.6,0.9-1,2.6-2.4,1.7c-1.5-1,0.1-2.1,0.6-2.9
				c4.6-7.7,9.3-15.4,15-22.4c0.8-1,1.5-1.7,2.8-1.7C546.9,103.8,547.1,104,547.3,104.1z"/>
			<path class="st1" d="M524.5,141c-2,9.3-4.6,18.4-5.8,27.8C515.5,163.3,518.9,147,524.5,141z"/>
			<path class="st1" d="M540.8,435.9c0.5-1.1,1.2-0.6,1.9-0.3c0.8,0.3,0.3,0.8-0.1,0.9C541.9,436.6,541,437.1,540.8,435.9
				C540.9,435.8,540.8,435.9,540.8,435.9z"/>
			<path class="st1" d="M564.1,224.3c-0.4-0.6-0.4-1.2,0.2-1.6c0.1-0.1,0.6,0.4,1,0.7C564.9,223.7,564.5,224,564.1,224.3z"/>
			<path class="st1" d="M720.9,340.9c-0.2,0.5-0.3,1.4-1.1,0.8c-0.7-0.5,0-1,0.4-1.4C720.5,340.4,720.7,340.6,720.9,340.9z"/>
			<path class="st2" d="M879.6,744.3c1.2-5.5,2.5-10.2,3.3-14.9c2-12.2-2.3-18.7-14.3-22.6c-2.3-0.8-4.5-2-6.8-3.1
				c-1-0.5-1.7-1.5-1.5-2.4c0.3-1.2,1.6-0.9,2.6-0.9c6.1-0.2,11.8,1.5,17.4,3.7c4.2,1.6,8,2.9,9.1-3.4c0.1-0.3,0.8-0.4,2.3-1.3
				c-6.7,37.2-15.1,73.3-17.4,110.4c6-12.6,13.3-24.4,21.5-35.7c7.9-10.9,13.4-23.4,21.1-34.4c-7.7,20.6-21.5,37.6-32.5,56.3
				c-7.5,12.8-12.6,26.3-13.7,41.4c-0.9,12.4-3.5,24.7-4.9,37.1c-1.5,13.2-4.4,26.2-7.5,39.4c-2.9-1-2.6-3.8-2-5.6
				c4.9-14.8,5.7-30.2,6.5-45.6c0.6-11.8,2.3-23.4,5.4-34.8c0.6-2,0.7-4.2,0.9-6.3c0.2-2.5-1.5-3.2-3.5-3.9
				c-10.5-3.9-21-8.1-31.5-12.2c-0.6-0.2-1.4-0.4-1.8-0.9c-1-1.2-3.8-0.8-3.2-3.1c0.5-1.9,2.6-0.9,3.9-1.2
				c12.6-3.1,23.8,0.8,34.3,7.4c3.1,2,3.1,0.9,3.8-1.9c2.6-12.1,2.6-24.5,4.7-36.6c0.7-4-1.4-6.4-4.6-8.4
				c-10.4-6.6-21.9-10.6-33.3-15c-6.1-2.3-12.1-4.4-18.4-5.8c-1.6-0.4-3.2-1.1-3.1-2.7c0.1-2.1,2.2-1.4,3.6-1.6
				c3.6-0.4,7.3-1.1,10.9-1.4C847.9,732.9,864.4,734.1,879.6,744.3z"/>
			<path class="st2" d="M556.6,618.6c-16.3-1.8-32.7-3.3-47-12.5c-11.4-7.2-16.8-18.8-21.6-30.6c-0.4-1.1-0.9-2.4,0.1-3.2
				c1.3-1,2,0.4,2.9,1c14.9,9.9,30.6,18.6,47.3,24.7c13.3,4.9,27.7,5.8,42.1,2.5c5.3-1.2,10.6-3.6,16.3-2.9c1,0.1,2.1-0.4,2.7,0.7
				c0.6,1.1-0.4,1.8-1,2.5c-6.2,6.8-13.7,11.7-22.6,14.3C569.5,616.8,563.4,619.5,556.6,618.6z"/>
			<path class="st2" d="M780.1,604.9c11.1,1,21.7,1,32.3,0.2c21-1.6,40.5-7.5,58.4-18.5c0.8-0.5,1.8-0.9,2.5-1.6
				c2.2-2,6-2.3,7.2-1.3c2.1,1.8-0.7,4.5-1.8,6.3c-9.2,15.2-23,24.6-39.7,29.9c-20.1,6.3-39.3,2.8-58-5.6c-3.3-1.5-6.5-3.1-9.8-4.4
				c-1.9-0.7-2.9-1.7-2.7-3.6c0.3-2.5,2.3-1.3,3.5-1.3C774.9,604.8,777.8,604.9,780.1,604.9z"/>
			<path class="st2" d="M841.8,922.4c-10.6-12.4-24.9-13.6-39.4-14.2c-5.6-0.2-11.3-0.5-17-0.1c-6.7,0.5-12-4.2-18.5-4.2
				c-1,0-1.2-1-1.1-1.9c0.1-1.3,1-1.3,2-1.7c3.8-1.4,7.8-1.2,11.7-1c15.8,0.9,31.5-0.1,47.3-0.6c7.6-0.3,14.3,1.5,20.7,5.6
				c5.7,3.7,5.9,10.6,9.5,15.4c0.7,1,0.2,2.7-0.9,3.6c-1.6,1.4-2.2-0.5-3.2-1.1c-1.6-0.9-3-2.1-4.5-3.1
				C843.3,915.6,842.7,915.9,841.8,922.4z"/>
			<path class="st2" d="M743.2,704.2c0,4,0.1,7.9,0,11.9c-0.4,12.8-0.3,25.7-1.7,38.4c-1.5,14.3-5.4,28.2-10.1,41.7
				c-8.6,24.7-11.4,50.2-12.7,76.2c-1,20.6,0.2,41.3-2.3,61.8c-0.1,0.5-0.1,1-0.2,1.5c-0.1,1.3,0.1,3.1-1.8,2.9
				c-1.3-0.2-1.1-1.8-0.9-3c0.4-2.8,1.2-5.6,1.2-8.4c-0.4-20.8,1.5-41.6,2.3-62.4c0.4-10.6,1.3-21.2,3-31.6
				c2.2-13,5.6-25.6,9.7-38.2c8.4-25.5,12-51.9,11-78.9C740.6,712,741.8,708.2,743.2,704.2z"/>
			<path class="st2" d="M540.4,643.8c-7.6-0.4-15.2-0.8-22.9-1.2c-0.8,0-1.7-0.2-2.4-0.6c-1.3-0.9-3.4-1.4-3.4-3.3
				c0.1-1.6,2.2-2,3.4-2.3c11.1-2.2,22.2-3.8,33.6-2.5c5.3,0.6,10.2,2.9,15.7,2.2c0.9-0.1,1.9,0.2,2,1c0.2,1.1-0.7,1.6-1.8,1.9
				C556.7,641.5,549,644.8,540.4,643.8z"/>
			<path class="st2" d="M828.4,646.3c-7.5-0.3-14.9-0.9-21.5-5.1c-1.4-0.9-2.7-1.7-2-3.4c0.9-2.3,2.5-0.4,3.8-0.2
				c10.5,1.1,21,0.6,31.4-0.5c4.1-0.4,8.4-2.5,12.1-5c1.7-1.2,3.7-2.3,5.6-3c1.2-0.4,2.7-0.3,3.6,0.9c1,1.5-0.3,2.5-1.2,3.4
				c-4.9,4.8-10.4,8.2-17.4,9.8C838,644.2,833.6,646.8,828.4,646.3z"/>
			<path class="st2" d="M855.3,656.3c-1.1,3.2-3,5.6-6.4,6.8c-6.6,2.4-13,5.1-20.6,3.4c-5.5-1.2-11.2,0.2-16.8,0.9
				c-2.2,0.3-4.2,0.3-4.7-2.2c-0.4-2.3,1.7-2.8,3.4-3.3c6.4-2,12.8-3.4,19.5-3.3c4.8,0.1,9.2-1.7,13.5-3.1
				C847.7,654,851.3,654.4,855.3,656.3z"/>
			<path class="st2" d="M523.7,661.9c0.9-1.3,1.2,0.8,2.3,0.2c10.4-6.1,22.1-4.9,33.4-5.4c3-0.1,6-0.3,8.9-0.5c0.9,0,1.7,0.3,2,1.2
				c0.3,0.8-0.2,1.2-0.9,1.3c-8,0.6-14.4,6-22.2,7.8C538.3,668.4,530.8,667,523.7,661.9z"/>
			<path class="st2" d="M941.4,649.2c6.4,13.3-11.6,78.3-24.4,87.4c7.4-14.3,14-28,17.9-42.6C938.9,679.3,940.4,664.3,941.4,649.2z"
				/>
			<path class="st2" d="M845.9,921.5c2.5,0.4,4.3,1.5,4.6,3.8c0.1,0.9-1.4,2.2-2.5,1.8C845.7,926.1,845.8,923.8,845.9,921.5z"/>
			<path class="st1" d="M662.8,1259.9c-12.2-1-26.5-1.6-40.7-3.5c-14.3-1.9-28.7-3.2-43.1-5c-4.5-0.6-6-1.7-4-6.5
				c3.5-8.1,1.5-16.4-0.5-24.5c-1.4-6-2.9-11.9-4.6-17.8c-0.8-2.7,0.7-2.7,2.4-2.9c6.2-0.9,12.2,1.1,18.3,1.5
				c4.6,0.3,9.3,0.9,13.9,0.9c22.1-0.1,44.1,2.2,66,4.4c2,0.2,4,0.1,5.9,0.4c7.7,1.2,9.8,3.7,10.7,11.7c1.2,10.3-1.3,19.7-6.7,28.5
				c-0.9,1.4-1.5,3-2.2,4.4C674.3,1259.9,674.3,1259.9,662.8,1259.9z"/>
			<path class="st1" d="M911.2,1253.2c2.1-5.1,6.1-8.2,8.1-12.9c5.7-13.8,2.4-25.4-7.8-35.3c-8.7-8.4-18.5-15.5-30.8-18.1
				c-0.5-0.1-1-0.3-1.4-0.5c-1.3-0.6-2.6-1.2-4.3-2c9.6-2.9,18.9-4.9,28.1-7.1c12.7-3,25.6-5.7,38.1-9.7c7-2.3,13.5-2.1,20.2,1.4
				c11,5.8,21.4,12,26.8,23.9c4.7,10.3,3.6,20.4-1.8,30.1c-2.4,4.3-6.2,7.8-8.5,12.1c-5.7,10.7-16.7,9.4-25.9,11.8
				c-10.1,2.7-20.6,3.5-30.7,6.3C918.4,1253.9,915,1253.2,911.2,1253.2z"/>
			<path class="st1" d="M785.3,1210.9c8.5-2,16.9-3.2,25-5.8c7.9-2.5,16.2-3.6,23.8-6.6c12.6-5,23.5-2.1,34.4,4.4
				c9.4,5.7,16.9,12.9,22.3,22.6c5.3,9.6,3.5,23.1-5,29.9c-1.8,1.5-3.9,2.9-6.7,2.2c-1.7-0.4-3.6,0-5.5,0.2
				c-26.1,3-52.4,4.3-78.7,3.8c-1.2,0-2.8,0.8-3.5-0.9c-0.5-1.1,0.6-1.7,1.3-2.5c12.4-14.2,8.7-29.5-2.2-41.9
				C788.9,1214.7,786.3,1213.8,785.3,1210.9z"/>
			<path class="st1" d="M719.9,1210.7c8,1.1,16,2.1,24.1,1.9c5-0.2,10,0.1,15-0.2c2.8-0.2,4.2,1,5.6,3.2c4.4,7,5,13.9,2.6,22.1
				c-2.7,9-6.3,16.8-13.6,22.9c-1.2,1-2.4,1.6-4,1.6c-8.5,0.2-17,0.5-25.5,0c-3.1-0.2-4.3-0.4-2.1-3.9c3.5-5.6,5.7-12,7.2-18.4
				c2.2-9.7-2.3-17.8-7.6-25.4C720.8,1213.4,719.6,1212.7,719.9,1210.7z"/>
			<path class="st1" d="M845.9,951.8c0.6,3-0.7,5.2-2.9,7.2C844.1,956.7,842.4,953.3,845.9,951.8L845.9,951.8z"/>
			<path class="st1" d="M499.5,670.1c0.8,0.6,2.9,0.3,2.1,1.9c-0.8,1.3-2.3,0.5-3.3-0.5C498.7,671.1,499.1,670.6,499.5,670.1z"/>
			<path class="st1" d="M1006.4,1232.8c-0.6,0.6-1.4,0.7-1.8-0.1c-0.3-0.7,0.2-1,0.8-1.2C1005.7,1231.9,1006.1,1232.3,1006.4,1232.8
				z"/>
			<path class="st2" d="M428.1,872.2c8-1.7,14.4,1.4,20.8,3.6c15.4,5.5,29.7,13.3,43.6,21.9c15.9,9.9,30.9,20.8,43.6,34.5
				c11.2,12.1,22.3,24.4,30.5,38.8c4.8,8.3,9.9,16.7,12.4,26.5c-3,0.4-3.7-2.1-4.3-3.7c-7.1-19-19.3-34.7-32.2-50.1
				c-16.6-19.9-36.8-35.2-59.1-48.2c-13.6-7.9-27.4-15-42.5-19.8C437,874.5,432.6,874.4,428.1,872.2z"/>
			<path class="st2" d="M810.6,239c-0.7,0-0.8,0-1,0c-2.5,0.6-4.7,4.4-7,2.4c-1.9-1.7-0.6-5.3-0.2-8c0.4-3,1.1-5.9,0.6-9.3
				c-4.9,1.1-8.5,3.8-11.9,7.2c-0.7,0.7-1.3,2.3-2.7,1.7c-1.2-0.5-1.9-1.8-1.9-3.3c0-2.3,0-4.7-2-6.8c-2,1.1-4.9,6.4-5.9-0.9
				c-0.3-2.1-1.7-0.5-2.5,0.6s-1.3,3.1-3.2,2.2c-1.5-0.7-0.8-2.4-0.7-3.6c0.4-5.1,1.9-10.1,0.9-16c-4,3.7-7,7.7-10.8,10.8
				c-3,2.5-4.3,2.1-4.7-1.5c-0.5-4.7-1.5-6.5-5.6-2.2c-1.8,1.9-2.3-0.5-2.4-1.9c-0.1-2.6,0-5.3-0.1-7.9c0-0.9,0.5-2.1-0.6-2.6
				c-1-0.4-1.7,0.3-2.5,1c-2.5,2.4-5.2,4.5-7.7,6.9c-1.9,1.7-3.6,1.9-5.7,0.2c-2.3-1.9-1.1-3.4,0.1-5c6.8-9.3,12.3-19.3,18.1-29.2
				c10.2-17.5,21.1-34.6,34.9-49.6c6.6-7.1,15.2-11.4,24.3-14.6c3-1.1,4.7-0.1,6.6,2.5c4.7,6.3,5.3,14.2,8.5,21
				c4,8.5,7.3,17.3,10.7,26c4.5,11.5,7,23.5,7.7,35.8c0.8,14.3,0.7,28.5,2.6,42.8c1.8,12.8-1.4,25.4-5.6,37.6
				c-0.4,1.2-0.9,2.3-2.3,2c-1.2-0.3-0.9-1.6-0.8-2.5c0.3-3.7-0.9-6.4-4.7-7.7c-3.5-1.2-3.7-4.2-2.4-6.9c1.7-3.3,0.9-4.1-2.5-3.8
				c-5.2,0.4-5.3-2.5-3.6-6.3c-2.2-0.7-4.7,3.9-6-0.4c-0.7-2.4,1.9-4.6,1-7.3c-2-0.7-2.9,1.2-4.3,1.8c-3,1.2-5.7,2.3-4.6-2.9
				C810.8,240.6,810.6,239.9,810.6,239z M840.3,267.6c2.2-9.2,3.8-17.8,3.7-26.7c0-6.9-2.3-13.3-2.3-20.2c0-11.6,0.2-23.3-1.5-34.8
				c-2-14-6.4-27.3-12.1-40.2c-3.1-6.9-5.9-13.9-9.2-21.6c-1,3-0.5,4.9-0.1,6.9c2.2,10.4,4.7,20.5,1.5,31.3
				c-1.6,5.3-3.7,11.3-0.1,16.9c5.2,7.9,7.3,16.7,8.1,25.9c0.7,8.4,1.8,16.8-1.8,25.1c-2,4.6-3.9,9.6-3.5,15c2.8,0.3,4.2-3.9,6.4-2
				c2.4,2.1-1.1,4.4-1,6.8c0,0.1-0.1,0.3-0.2,0.4c-1.5,2.7-0.3,3.5,2.4,3.4c5.7-0.1,5.9,0.1,3.8,5.4c-1.4,3.6-1.2,5.7,2.8,6.7
				C838.2,266,839.1,266.9,840.3,267.6z"/>
			<path class="st2" d="M686.1,222.4c-0.1-6.9,1-13.6,1.9-20.4c0.4-3.2,1.5-6.8,4.9-7.1c3.8-0.4,6.1,2.5,7.4,6.2
				c3,8.3,3.9,17.1,5.5,25.7c2.9,15.9,5.3,31.8,8.7,47.5c4,18.5,4.4,36.9,0.5,55.4c-0.3,1.5-0.7,2.7-2.2,2.8c-1.4,0-2.2-1.2-2.7-2.6
				c-3.3-9-7-17.8-10-27c-5.1-15.3-8.5-31-11.2-46.7C686.9,245.2,686.9,233.7,686.1,222.4z"/>
			<path class="st2" d="M664,213.2c0.3,13-2.1,25.7-4.6,38.4c-3.2,16.3-5.5,32.7-10.5,48.6c-2.8,9.2-5.9,18.2-9.2,27.3
				c-0.7,1.8-2.9,3.7-4.8,3.1c-2.1-0.7-2.3-3.4-2.1-5.6c1-12.6,0.5-25.3,0.8-37.9c0.3-16.3,3.2-32.4,5.5-48.5
				c2-13.9,6.6-26.5,12.3-39.1c1.2-2.6,6.9-5.7,9.6-4.9c3.9,1.1,2.7,4.5,2.9,7.1C664.1,205.5,664,209.4,664,213.2z"/>
			<path class="st2" d="M837.5,467.8c-8.1,0.2-15.2-2.3-21.7-7c-3.5-2.5-4.5-6.3-6-9.9c-0.6-1.3,0.5-2.9,1.8-3.7
				c1.2-0.7,2.1,0.1,2.9,1.1c9.1,11.9,21.4,9.8,33.6,7.5c6.8-1.3,13.6-3,17-10.3c0.4-1,1.4-1.7,2.4-1.3c1.2,0.5,1.2,2,1,3.1
				c-1.4,7.7-5.9,13-12.6,16.6C850.1,466.9,843.8,467.6,837.5,467.8z"/>
			<path class="st2" d="M668.9,324.3c-0.7,2.6,1.2,7.6-2.3,11.5c-1.3,1.5-1.9,4.3-4.8,3.5c-2.7-0.8-4.3-2.6-4.5-5.6
				c-0.9-12.4-3.3-24.6-2.6-37.1c0.2-3.1,0.1-6.3,0.2-9.5c0-1.4-0.6-3.1,1.7-3.4c2-0.3,3.5,0.6,3.9,2.3
				C663.5,298.2,669,309.7,668.9,324.3z"/>
			<path class="st2" d="M692.1,295.5c-1.2,9.3,0.7,18.5,0.7,27.8c0,4.9-2.1,8.8-3.8,12.9c-0.8,1.9-2.4,4.2-5.4,3
				c-2.5-1-4.1-2.7-4-5.6c0.1-4,0.1-8,0.5-11.9c1.1-11.4,3.3-22.5,7.7-33.2c0.6-1.5,1.4-3,2.9-2.7c1.8,0.3,1.6,2.2,1.5,3.7
				C692,291.5,692.1,293.5,692.1,295.5z"/>
			<path class="st2" d="M669.9,255.6c0-6.8,0-13.7,0-20.5c0-1.5-0.1-3.1,0.5-4.4c0.6-1.4,0.7-3.8,2.8-3.5c1.7,0.3,2.3,2.2,2.5,3.9
				c1.8,16.4,4.7,32.6,3.2,49.2c-0.1,1.3-0.2,2.7-0.4,4c-0.2,1.7-1.3,2.7-3,2.8c-1.8,0.2-2.5-0.9-3.2-2.4c-1.1-2.3-1.8-4.7-1.8-7.2
				c-0.1-7.3,0-14.6,0-22C670.3,255.6,670.1,255.6,669.9,255.6z"/>
			<path class="st2" d="M804.5,244.9c-0.1,1.5-1.6,2.1-2.7,2.5c-21.1,7.8-35.5,23.7-48.8,40.8c-0.9,1.2-1.8,2.9-3.3,1.9
				c-1.9-1.3-0.2-2.4,0.7-3.6c13.9-16.8,28.9-32.4,49.1-41.7C803.1,243.3,804.5,243.2,804.5,244.9z"/>
			<path class="st2" d="M792.6,265.2c0.2,3.2-2.2,4-3.8,4.3c-8.1,1.8-13.8,7.4-19.9,12.3c-1.3,1-2.4,3.3-3.9,1.8
				c-1.7-1.7,0.8-2.7,1.9-3.6c6.1-5.1,12.5-9.6,19.7-13.1C788.6,265.9,790.5,265.4,792.6,265.2z"/>
			<path class="st2" d="M561.1,254.4c0.6,0.5,1.3,0.9,1.7,1.5c3.5,5.3,8.5,9.2,12.3,14.1c0.6,0.8,2.3,1.7,0.9,2.8
				c-1.3,1.1-1.9-0.6-2.6-1.4c-4.4-4.8-8.1-10.2-13.1-14.5c-0.5-0.4-1.3-0.5-0.7-1.4C560,255.2,560.4,255,561.1,254.4z"/>
			<path class="st2" d="M774.7,284.4c4.9-2.5,9.5-4.8,14-7.2c1-0.5,1.8-0.8,2.6,0.3c0.7,1,0.1,1.8-0.6,2c-5.1,1.2-9.2,4.8-14.3,6.1
				C776,285.7,775.6,285.1,774.7,284.4z"/>
			<path class="st2" d="M551.5,267.4c2.8-0.7,15.9,9.8,17.6,14.5C562,278.2,557.6,271.7,551.5,267.4z"/>
			<path class="st2" d="M591.6,280.3c4.1,3.5,4.5,7.9,6.2,11.7c0.3,0.6-0.2,1.3-0.9,1.5c-0.9,0.3-1.9,0-2-0.9
				C594.2,288.8,591.4,285.5,591.6,280.3z"/>
			<path class="st2" d="M584.5,288.5c5-1.9,5.7,1,6.9,2.8c0.4,0.5,0.1,1.3-0.8,1.4C587.6,292.7,587.8,289.4,584.5,288.5z"/>
			<path class="st2" d="M586.4,270.2c2.3,1.4,3,3.7,4.3,5.9C586.6,274.9,586.6,274.9,586.4,270.2z"/>
			<path class="st2" d="M487.7,749.3c1.2-0.1,1.8,0.3,2,1.3c0.3,1.9-0.7,3.3-2.3,4.1c-4.8,2.4-8.6,5.9-11.8,10
				c-8.6,11.1-15.7,23.1-17.7,37.4c-0.7,5.2-4.3,9.6-3.5,15.4c0.3,2-2.2,0.7-2.7-0.3c-1.4-2.6-3.3-5.4-3.4-8.2
				c-1-18.9,3.6-36.1,17.7-49.7C472.1,753.4,480.3,751.9,487.7,749.3z"/>
			<path class="st2" d="M586,449.2c8.5-5.8,18-8.6,27.8-10.7c2.9-0.6,5.9-1,8.8-1.5c0.5-0.1,1,0,1.5-0.1c1.6-0.2,0.5-3.8,3.2-2.6
				c0.4,0.2,0.5,1.7,0.5,1.7c-2.2,0.7-2.7,4.1-5.8,3.7c-2.6-0.4-5.2,0-7.8,0.8c-8.4,2.6-17.3,3.9-25.3,8.1
				C588,449,587,449,586,449.2z"/>
			<path class="st2" d="M516.6,498.2c3.8-12.4,32-44.9,43.3-50.3C543,463.8,528.6,479.9,516.6,498.2z"/>
			<path class="st2" d="M784,511.6c0,0.2-0.1,0.5-0.1,0.7c0.2-0.1,0.4-0.2,0.5-0.3C784.3,511.9,784.1,511.7,784,511.6
				C783.9,511.5,784,511.6,784,511.6z"/>
			<path class="st1" d="M840.3,267.6c-1.2-0.7-2.1-1.6-3.1-1.8c-4-1-4.3-3.1-2.8-6.7c2.1-5.3,1.9-5.4-3.8-5.4
				c-2.7,0-3.9-0.7-2.4-3.4c0.1-0.1,0.2-0.3,0.2-0.4c-0.1-2.4,3.4-4.7,1-6.8c-2.2-1.8-3.6,2.4-6.4,2c-0.4-5.3,1.6-10.3,3.5-15
				c3.5-8.3,2.5-16.7,1.8-25.1c-0.8-9.1-2.9-18-8.1-25.9c-3.6-5.6-1.5-11.6,0.1-16.9c3.2-10.8,0.7-21-1.5-31.3
				c-0.4-1.9-0.9-3.9,0.1-6.9c3.3,7.7,6.1,14.7,9.2,21.6c5.7,12.9,10.1,26.2,12.1,40.2c1.7,11.5,1.5,23.2,1.5,34.8
				c0,6.9,2.3,13.4,2.3,20.2C844,249.8,842.4,258.4,840.3,267.6z"/>
		</g>
		<path class="st3" d="M659,402.1c1.3-2.2,7.4-2.7,11.2-2.3c1.9,0.2,8.8-2.2,13.9-0.6c1.3-0.2,2.7,0.4,3.9-0.6
			c0.9,0.1,1.8,0.2,2.6,0.3c3.4-2,3,1.1,4.6,1.1c3,0.3,5.6,1.3,7.9,3.3c0.9,1.5,3.3,2,3,4.3c-1.1,1.8-2.7,2.1-4.7,1.8
			c-2.4-0.4-5-0.5-7.4-0.6c-4.3-0.2-6.7,1.4-5.7,6.1c4.7,0.8,5.3,2.9,4.7,4.5c-0.7,1.7-3.7,9-5.9,9.1c-4.8,6.7-7,13.9-11.4,2
			c-3.8-2.1-4.3-7.2-8.4-9.1c-3.2-2.8-3.8-5,1.3-6.2c1.1-0.3,2-1.4,3.1-2.1c0.4,0.5,0.1-2.4,0.4-1.9c-0.4-3.6-5.2-4.6-6.4-5.6
			C656,412.9,647,408.6,659,402.1z"/>
		<path class="st1" d="M513.2,1241.8c-8.1-0.7-16.2-5.6-25.6-6.8c-9.5-1.3-19,1.9-28.7-3.4c-3-0.4-4-1.2-2.7-4.3
			c2.3-5.4,1-10.9-0.3-16.3c-0.9-4-1.9-7.9-3.1-11.8c-0.5-1.8,0.5-1.8,1.6-2c4.1-0.6,8.1,0.7,12.2,1c3.1,0.2,6.2,0.6,9.2,0.6
			c14.7-0.1,21.7-1.6,36.3-0.1c1.3,0.1,7.7-0.4,9-0.2c5.1,0.8,9.2,5.9,9.8,11.2c0.8,6.9,5.5,12.7,2,18.6c-0.6,0.9-1.9,12.3-2.4,13.3
			C527.8,1247.3,520.8,1241.9,513.2,1241.8z"/>
	</g>
	<polygon class="st2" points="515.8,319.2 544.2,319.9 531.7,338.4 505.7,336.4 	"/>
</g>
<g id="eyes">
	<g id="right_eye_2_">
		<path id="right_eye_1_" class="st4" d="M741.1,374.3c-2.9,0.1-4.9-1.6-6.9-3.3c-0.5-6-3.4-11.9-0.3-18c0.5-1.2,1-2.4,1.5-3.5
			c1.1-0.4,1.8-1.2,1.8-2.4l0,0c13.4-8.8,28-11.6,30.1-11.4c4.7,0.5,9.3,1.2,13.8,2.2c3.8,1.6,7,3.9,9.5,7.1c1.4,2.6-1,6.8,3.5,8.1
			c0.1,0.3,0.2,0.6,0.3,1c-0.2,2.2,0.4,4.9-1.8,6.3c-4,2.6-24,20.2-35.5,19.6c-3.9-0.2-6.9-3.4-10.9-2.9c-0.3-0.3-0.6-0.5-1-0.8
			c-0.6-0.1-1.2-0.2-1.8-0.3C743,374.8,742.4,374,741.1,374.3z"/>
		<path id="right_eye_ball" d="M757.5,343.5c1.5-4.5,5.5-8.4,8.1-6.8c5.6,3.3,5.3,30.5,1.6,32.6
			C763.8,371.2,753.9,354.4,757.5,343.5z"/>
	</g>
	<g id="left_eye_2_">
		<path id="left_eye_1_" class="st4" d="M592.5,376.8c-0.6-0.8-1-2-1.8-2.3c-9.6-3.1-16.2-10.3-23.4-16.7c-3.4-3-5-7.3-4.2-11.7
			c0.8-4.1,4.2-7.3,7.4-9.6c4.3-3.1,9-5.6,15-4.7c3.8,0.6,22.9,5.4,25.1,6.6c15,8.2,17.4,16.8,14.4,35.5c-6.8,7.5-15.5,6.5-24.2,5.3
			c-1.3-0.2-2.5-0.6-3.8-0.9c-0.6-1.3-1.7-1.4-2.9-1.2C593.6,377,593,376.9,592.5,376.8z"/>
		<path id="left_eye_ball" d="M590.5,340.1c1.5-4.5,5.5-8.4,8.1-6.8c5.6,3.3,5.3,30.5,1.6,32.6C596.8,367.7,586.9,351,590.5,340.1z"
			/>
	</g>
</g>
<path id="right-eyebrow" class="st5" d="M719.5,340.3c0,0,25.1-68.9,90-16.3"/>
<path id="left-eyebrow" class="st5" d="M632.2,335.7c0,0-25.6-68.9-91.6-16.3"/>
</svg>
